<svg xmlns="http://www.w3.org/2000/svg" xmlns:xlink="http://www.w3.org/1999/xlink" xmlns:inkscape="http://www.inkscape.org/namespaces/inkscape" version="1.1" width="4000" height="4000" viewBox="0 0 4000 4000">
<defs>
<clipPath id="clip_1">
<path transform="matrix(1,0,0,-1,0,4000)" d="M0 4000H4000V0H0Z"/>
</clipPath>
</defs>
<g>
<g inkscape:groupmode="layer" inkscape:label="Layer 1">
<g clip-path="url(#clip_1)">
<path transform="matrix(1,0,0,-1,1534.3963,2235.8194)" d="M0 0C-.589-1.752-1.273-3.477-1.743-5.26-3.285-11.072-4.042-16.948-2.788-22.924-.899-31.948 5.319-37.65 14.398-39.015 22.459-40.224 29.963-38.335 37.048-34.836 53.964-26.469 65.935-13.426 72.65 4.252 74.849 10.05 75.908 16.108 75.26 22.377 73.96 34.959 65.013 42.012 53.262 41.77 45.917 41.615 39.106 39.535 32.701 36.072 17.906 28.075 7.172 16.323 0 0M239.968 56.081C250.529 66.501 260.086 77.737 268.01 90.31 274.06 99.913 279.064 109.977 281.715 121.104 282.874 125.953 283.307 130.821 282.687 135.766 281.574 144.607 276.501 150.296 267.956 152.746 262.7 154.256 257.408 154.233 252.098 153.659 240.533 152.404 229.703 148.595 219.329 143.522 188.859 128.64 163.75 107.263 143.325 80.292 137.358 72.418 132.221 64.023 128.125 55.018 124.699 47.491 122.176 39.726 121.61 31.405 121.368 27.888 121.546 24.412 122.523 21.031 124.238 15.119 128.038 10.99 133.74 8.777 136.013 7.897 138.462 7.358 140.876 6.984 146.624 6.09 152.344 6.684 158.011 7.769 167.55 9.594 176.587 12.934 185.31 17.121 205.502 26.815 223.225 40.014 239.968 56.081M446.263-120.255C436.473-120.314 427.23-120.424 417.997-120.452 405.26-120.483 392.527-120.493 379.799-120.424 364.808-120.347 349.817-120.191 334.831-120.027 330.958-119.981 327.085-119.781 323.444-119.658 322.148-117.979 322.988-116.61 323.334-115.296 328.357-96.442 334.21-77.837 340.921-59.512 341.487-57.975 341.993-56.419 342.531-54.863 341.072-53.248 339.434-54.065 337.951-54.384 322.915-57.637 307.801-60.588 292.878-64.307 246.564-75.839 201.679-91.564 158.17-111.186 154.297-112.938 150.584-113.613 146.337-113.326 125.023-111.856 103.681-110.816 82.372-109.315 60.652-107.788 38.955-105.981 17.258-104.138 1.911-102.833-13.453-101.583-28.736-99.703-44.225-97.801-59.63-95.219-75.055-92.814-85.205-91.236-95.342-89.562-105.447-87.728-127.473-83.736-149.489-79.667-171.487-75.534-182.787-73.412-194.06-71.104-205.333-68.841-207.318-68.444-209.265-67.87-211.154-67.395-211.565-65.251-209.9-64.694-208.969-63.85-186.788-43.682-164.763-23.335-142.29-3.495-115.497 20.164-87.915 42.901-59.936 65.146 7.176 118.494 77.121 167.851 149.512 213.763 157.878 219.074 166.811 223.193 176.113 226.519 181.948 228.608 187.951 229.786 194.22 229.457 205.885 228.85 213.042 221.615 213.485 209.694 213.627 205.98 213.134 202.326 212.016 198.759 211.592 197.408 211.35 196.003 210.894 194.046 212.646 194.434 213.96 194.621 215.2 195.018 234.585 201.186 254.233 206.3 274.32 209.553 294.073 212.746 313.927 213.531 333.832 210.967 345.346 209.484 356.341 206.168 366.523 200.602 387.153 189.32 397.732 171.542 399.384 148.303 400.524 132.267 397.372 116.82 392.367 101.692 385.684 81.496 375.912 62.792 364.644 44.822 356.341 31.587 347.299 18.882 337.687 6.574 336.564 5.142 335.497 3.663 334.402 2.208 340.337-2.208 348.239-3.59 361.181-2.555 362.604-.73 364.137 1.19 365.615 3.148 464.151 133.951 573.955 254.484 695.168 364.598 720.401 387.522 746.14 409.881 772.262 431.788 798.243 453.576 824.594 474.895 851.409 495.638 922.786 550.857 996.797 602.299 1073.334 650.114 1275.391 776.345 1365.19 791.843 1459.301 807.7 1480.802 811.322 1503.89 813.471 1525.693 813.362 1548.766 813.238 1571.618 810.738 1593.922 804.566 1634.233 793.403 1669.597 779.351 1696.522 747.212 1705.861 736.062 1710.113 726.614 1713.584 712.326 1717.088 697.901 1715.582 682.025 1712.494 667.531 1708.1 646.92 1700.774 635.707 1689.209 618.298 1676.071 598.517 1661.399 583.873 1644.132 567.664 1617.672 542.823 1588.466 521.596 1557.608 502.595 1554.282 500.552 1550.906 498.594 1547.599 496.519 1545.606 495.273 1543.461 494.735 1541.153 494.794 1539.15 494.849 1537.59 495.766 1536.687 497.573 1535.779 499.397 1535.998 501.213 1537.284 502.755 1538.192 503.85 1539.309 504.776 1540.378 505.725 1558.224 521.596 1576.7 537.937 1587.809 551.897 1592.973 558.385 1597.266 565.456 1606.226 582.344 1611.454 592.203 1616.157 607.253 1617.553 618.371 1618.479 625.702 1619.83 635.761 1611.513 649.448 1605.651 659.092 1600.619 663.398 1586.007 672.992 1570.765 682.992 1539.67 692.55 1520.291 695.15 1489.365 699.301 1468.927 699.06 1437.891 697.217 1394.597 694.644 1356.034 679.32 1315.199 664.032 1277.572 649.945 1173.516 605.761 1003.375 481.701 972.171 458.946 941.45 435.533 911.61 411.008 890.195 393.398 868.813 375.711 848.07 357.331 811.185 324.635 775.136 291.017 740.168 256.25 703.444 219.735 667.997 182.043 633.987 142.988 595.538 98.832 558.435 53.585 523.344 6.711 518.179-.187 513.152-7.208 508.48-14.439 504.689-20.311 501.742-26.702 500.533-33.677 500.082-36.277 499.899-39.001 500.123-41.62 500.442-45.388 502.495-48.244 506.231-49.334 508.553-50.014 511.044-50.475 513.448-50.442 519.028-50.36 524.416-49.019 529.653-47.099 540.319-43.18 550.246-37.956 559.329-31.054 577.645-17.14 596.094-3.408 614.461 10.438 634.794 25.771 655.086 41.163 675.424 56.496 698.544 73.932 721.678 91.346 744.84 108.736 759.945 120.082 775.045 131.441 790.26 142.646 800.688 150.329 811.628 157.249 823.175 163.143 832.709 168.006 842.924 169.986 853.585 169.133 869.369 167.874 877.65 155.419 877.613 142.117 877.591 135.041 875.921 128.321 873.12 121.825 867.709 109.293 859.21 99.115 849.115 90.191 834.041 76.856 818.795 63.718 803.708 50.401 779.228 28.8 754.826 7.103 730.36-14.512 724.123-20.023 719.187-26.606 715.2-33.787 712.203-39.184 710.332-45.041 711.829-51.533 712.942-56.346 715.301-60.383 718.854-63.531 722.071-66.373 725.957-68.358 730.054-69.858 734.21-71.378 738.48-71.538 742.791-71.218 752.435-70.502 761.947-68.964 771.226-66.2 773.375-65.557 775.497-64.735 777.527-63.769 803.202-51.528 827.23-36.615 849.949-19.498 864.73-8.362 878.685 3.745 892.691 15.812 894.246 17.148 895.802 18.522 897.125 20.073 905.255 29.626 912.905 39.539 919.297 50.356 922.143 55.183 923.384 60.639 924.589 66.026 925.619 70.62 926.021 75.356 926.851 80.004 927.531 83.832 928.229 87.687 929.283 91.428 930.401 95.388 932.307 99.005 934.871 102.313 962.225 137.678 992.659 170.118 1026.523 199.348 1098.826 261.751 1181.614 304.219 1273.462 329.511 1277.613 330.656 1281.791 331.701 1285.943 332.851 1291.39 334.361 1296.636 333.572 1301.463 330.939 1308.22 327.258 1314.018 322.404 1317.96 315.62 1320.401 311.428 1321.518 307.021 1321.053 302.071 1320.222 293.216 1318.566 284.626 1314.84 276.478 1313.028 272.518 1310.874 268.846 1307.946 265.611 1287.248 242.723 1265.259 221.182 1241.514 201.459 1237.722 198.307 1233.972 195.096 1230.09 192.066 1222.959 186.496 1218.511 179.607 1217.631 170.324 1217.139 165.059 1215.624 159.863 1214.315 154.699 1212.923 149.22 1209.935 144.63 1206.089 140.474 1190.629 123.782 1173.047 109.745 1153.731 97.755 1147.937 94.161 1142.011 93.12 1135.487 94.48 1134.689 94.648 1133.859 94.712 1133.07 94.936 1121.764 98.106 1111.126 95.538 1100.829 90.949 1089.717 86.003 1079.561 79.407 1069.625 72.422 1049.935 58.577 1030.921 43.933 1013.813 26.93 1003.448 16.629 993.749 5.752 985.629-6.433 979-16.378 973.512-26.871 969.935-38.367 965.56-52.454 965.036-66.583 968.462-80.894 968.653-81.688 968.845-82.482 969.055-83.367 967.627-84.89 965.724-84.763 963.982-84.977 949.931-86.706 935.884-88.508 921.815-90.096 896.126-92.993 870.451-96.086 844.712-98.503 806.71-102.071 768.672-105.273 730.624-108.316 707.509-110.169 684.356-111.56 661.204-112.929 642.148-114.051 623.07-114.845 604.001-115.752 591.5-116.346 579.005-116.884 566.551-117.44 565.159-115.191 566.327-113.244 566.888-111.382 569.023-104.307 571.327-97.286 573.553-90.237 574.165-88.294 574.721-86.332 575.483-83.768 573.763-84.694 572.486-85.232 571.373-86.003 558.512-94.863 545.844-104.01 534.124-114.343 530.46-117.573 526.669-118.85 521.938-118.905 498.535-119.197 475.132-119.658 451.729-120.073 450.091-120.105 448.453-120.205 446.263-120.255" fill="#ffffff"/>
<path transform="matrix(1,0,0,-1,1464.925,1598.0671)" d="M0 0C-38.358-12.067-74.676-27.642-109.503-46.834-123.125-54.343-134.234-64.242-143.449-76.629-157.203-95.114-167.089-115.511-174.042-137.386-180.602-158.015-184.69-179.169-186.578-200.711-187.345-209.498-187.495-218.357-187.5-227.18-187.514-242.577-187.459-257.983-186.966-273.371-186.003-303.166-182.71-332.746-177.322-362.057-174.096-379.612-170.584-397.121-166.82-414.571-162.358-435.282-159.639-456.227-157.646-477.285-156.734-486.888-155.949-496.514-155.538-506.149-155.041-517.842-154.859-529.552-154.799-541.254-154.699-560.374-155.693-579.448-158.129-598.426-158.809-603.722-159.562-609.014-160.392-614.288-161.387-620.588-162.942-626.751-165.228-632.723-167.792-639.434-170.287-646.172-172.806-652.896-178.189-667.253-186.163-680.104-195.648-692.344-199.375-692.6-202.783-690.88-206.241-689.881-237.614-680.825-268.248-669.621-298.513-657.399-299.626-656.948-300.666-656.304-302.007-655.615-301.555-653.535-301.131-651.564-300.702-649.598-300.26-647.591-299.794-645.593-299.384-643.581-297.445-634.124-295.515-624.671-293.599-615.209-291.268-603.672-290.834-591.938-290.73-580.246-290.538-558.649-292.769-537.194-296.3-515.903-298.928-500.054-303.9-484.817-309.539-469.813-315.032-455.191-321.441-440.953-328.668-427.116-335.889-413.275-343.741-399.753-352.888-387.075-361.692-374.867-369.16-361.938-375.616-348.357-395.036-307.495-408.795-264.876-415.78-220.128-418.791-200.825-420.401-181.414-420.232-161.861-420.173-154.676-420.41-147.486-420.155-140.31-419.603-124.571-415.935-109.439-410.62-94.672-401.496-69.315-387.896-46.469-371.633-25.123-353.12-.835-331.797 20.762-308.385 40.306-257.395 82.874-200.283 114.648-137.874 137.181-114.503 145.62-90.972 153.439-66.798 159.247-31.578 167.705 4.092 172.901 40.283 174.484 62.45 175.451 84.566 175.109 106.711 173.367 121.683 172.185 136.533 170.283 151.286 167.691 188.877 161.086 225.055 149.968 259.147 132.55 283.613 120.054 306.081 104.713 325.688 85.37 346.742 64.598 363.088 40.716 373.152 12.76 379.676-5.351 383.065-24.056 383.339-43.321 383.814-77.139 375.059-108.695 359.835-138.613 344.968-167.833 324.959-193.221 301.537-215.99 271.56-245.141 237.513-268.617 200.529-287.938 147.294-315.748 90.812-333.663 31.606-343.23 8.079-347.034-15.616-349.279-39.43-349.972-55.023-350.429-70.611-350.187-86.2-349.274-100.155-348.458-114.042-347.185-127.851-345.096-135.128-343.991-142.587-342.655-149.662-341.455-154.238-317.19-160.721-228.887-156.414-208.348-155.488-208.458-154.799-208.549-154.024-208.604-130.753-210.237-107.682-208.239-84.74-204.484-41.168-197.349 .652-184.279 41.136-166.825 74.229-152.555 105.816-135.529 135.087-114.393 150.607-103.184 165.255-90.953 178.129-76.72 186.145-67.86 193.38-58.422 198.713-47.66 201.92-41.191 204.329-34.462 205.114-27.204 206.3-16.245 202.915-6.985 195.104 .725 189.434 6.318 182.596 9.995 175.237 12.751 164.398 16.811 153.111 18.964 141.624 19.977 119.22 21.948 96.93 20.516 74.726 17.267 49.507 13.581 24.781 7.696 0 0" fill="#ffffff"/>
<path transform="matrix(1,0,0,-1,2076.9669,2487.5557)" d="M0 0C-10.588-.429-20.634-.913-30.693-1.232-44.644-1.665-58.599-2.048-72.555-2.322-84.256-2.555-95.958-2.624-107.66-2.701-120.593-2.778-133.531-2.847-146.46-2.801-156.113-2.769-165.762-2.605-175.41-2.418-186.701-2.199-197.993-1.925-209.279-1.615-222.413-1.246-235.552-.967-248.677-.388-267.96 .465-287.24 1.428-306.51 2.559-322.089 3.467-337.659 4.558-353.216 5.794-375.328 7.55-397.431 9.453-419.525 11.409-436.104 12.874-452.673 14.42-469.224 16.104-497.632 18.992-526.062 21.692-554.416 25.073-580.926 28.229-607.354 32.107-633.8 35.789-650.278 38.084-666.742 40.433-683.17 43.042-701.427 45.931-719.648 49.051-737.851 52.249-750.186 54.416-762.504 56.733-774.771 59.261-788.444 62.08-802.075 65.104-815.679 68.248-829.484 71.437-843.279 74.681-856.984 78.252-876.049 83.225-895.141 88.166-914.023 93.791-937.618 100.812-961.126 108.184-984.465 116.017-1009.945 124.562-1035.547 132.778-1060.442 142.992-1132.025 172.354-1195.496 213.941-1249.369 269.593-1273.795 294.822-1294.159 323.102-1308.197 355.615-1319.392 381.546-1326.021 408.467-1326.865 436.733-1327.435 455.917-1325.615 474.854-1321.386 493.613-1317.485 510.916-1311.591 527.541-1304.903 543.886-1297.125 562.878-1285.784 579.685-1272.198 595.009-1258.211 610.78-1242.207 624.242-1224.903 636.19-1180.624 666.747-1131.883 686.414-1078.987 695.912-1073.758 696.852-1067.787 697.978-1062.121 698.937-1062.121 696.281-1062.066 695.182-1061.961 693.622-1060.519 671.888-1058.083 650.269-1053.968 628.873-1051.295 614.977-1047.453 601.382-1042.746 586.856-1043.576 586.555-1047.161 586.008-1048.266 585.798-1055.72 584.356-1063.225 583.179-1070.638 581.56-1084.511 578.531-1097.978 574.219-1110.738 567.883-1119.566 563.508-1128.416 559.169-1137.216 554.735-1148.183 549.215-1157.65 541.564-1165.82 532.577-1180.131 516.843-1192.011 499.397-1200.355 479.708-1205.61 467.308-1208.826 454.416-1209.415 440.921-1210.086 425.675-1207.061 411.108-1201.194 397.093-1194.374 380.812-1184.451 366.496-1172.955 353.234-1158.092 336.085-1140.957 321.418-1123.056 307.55-1105.779 294.16-1086.915 283.367-1067.873 272.846-1010.496 241.14-951.277 213.421-889.858 190.451-867.162 181.961-844.169 174.452-820.739 168.188-796.14 161.61-771.5 155.214-746.692 149.502-732.686 146.272-718.613 143.334-704.507 140.583-684.552 136.702-664.571 132.947-644.543 129.466-630.378 127.002-616.117 125.119-601.906 122.924-570.83 118.139-539.566 114.868-508.298 111.669-480.917 108.859-453.499 106.359-426.072 104.051-403.969 102.181-381.843 100.593-359.703 99.251-333.882 97.687-308.043 96.305-282.199 95.251-260.045 94.343-237.874 93.91-215.707 93.435-196.824 93.034-177.933 92.737-159.042 92.627-142.828 92.527-126.606 92.691-110.388 92.855-92.527 93.043-74.663 93.18-56.811 93.654-35.67 94.215-14.544 94.963 6.579 95.921 30.365 97.002 54.151 98.17 77.911 99.717 104.945 101.482 131.975 103.417 158.955 105.826 189.202 108.526 219.407 111.715 249.603 114.917 289.192 119.115 328.636 124.461 368.024 130.237 422.641 138.248 477.011 147.646 531.222 158.015 623.01 175.575 708.371 209.612 787.842 258.444 821.108 278.882 850.666 304.023 875.848 334.028 896.112 358.166 911.87 384.904 921.911 414.885 925.898 426.792 928.795 438.946 930.784 451.35 934.552 474.831 935.013 498.389 932.011 521.943 930.816 531.281 928.604 540.506 926.523 549.707 920.953 574.361 914.347 598.718 904.757 622.162 902.354 628.052 899.735 633.854 897.267 639.721 896.715 641.031 896.14 642.408 896.008 643.795 895.665 647.44 899.069 650.045 902.5 648.859 905.104 647.96 907.043 646.272 908.576 643.932 914.657 634.657 921.007 625.551 926.952 616.195 941.847 592.755 954.972 568.357 965.771 542.755 975.775 519.032 983.74 494.676 987.403 469.11 990.812 445.387 991.226 421.628 987.034 397.937 984.853 385.602 982.687 373.261 980.159 360.994 975.733 339.53 967.791 319.333 957.536 300.004 941.071 268.978 919.137 242.322 893.074 218.946 863.024 191.989 829.165 170.762 793.202 152.76 756.765 134.521 718.727 120.301 679.84 108.271 649.831 98.987 619.361 91.51 588.804 84.27 545.684 74.046 502.49 64.169 459.037 55.465 387.997 41.232 316.523 29.635 244.648 20.575 199.243 14.845 153.718 10.214 108.088 6.583 73.709 3.85 39.288 1.879 4.854 .068 3.421-.009 1.98 .032 0 0" fill="#ffffff"/>
<path transform="matrix(1,0,0,-1,1065.2478,2492.621)" d="M0 0C-22.327-13.28-45.319-24.083-69.571-32.126-92.098-39.589-115.21-44.061-138.951-44.781-168.499-45.68-196.455-39.64-222.304-24.895-229.635-20.712-236.487-15.853-242.819-10.269-272.527 15.912-291.382 48.198-297.965 87.473-301.765 110.132-302.002 132.801-299.315 155.575-295.114 191.24-284.261 224.849-268.098 256.82-267.646 257.705-266.332 260.283-266.332 260.283-266.332 260.283-263.741 257.563-262.696 256.455-246.528 239.201-229.357 223.02-211.108 207.983-195.73 195.319-179.685 183.567-163.029 172.627-149.297 163.608-135.132 155.346-120.716 147.5-120.032 147.125-117.354 145.807-117.354 145.807-117.354 145.807-122.012 143.667-123.7 142.737-138.503 134.557-149.808 122.979-157.445 107.883-161.304 100.255-163.212 92.117-163.312 83.549-163.371 78.75-162.422 74.165-160.534 69.776-158.627 65.355-155.775 61.706-151.834 58.832-141.802 51.51-130.666 49.493-118.577 51.437-95.296 55.196-73.987 63.54-54.822 77.527-43.216 86.003-31.515 94.566-20.954 104.872-8.837 100.771 3.171 95.857 15.182 91.802 27.039 87.801 38.937 83.928 50.858 80.114 62.942 76.245 75.077 72.518 87.285 68.704 80.452 57.591 30.524 18.348 0 0" fill="#ffffff"/>
<path transform="matrix(1,0,0,-1,2371.9488,2495.2012)" d="M0 0C19.599 2.765 38.705 5.383 57.774 8.244 107.495 15.698 156.843 25.191 205.958 35.936 208.449 36.478 210.954 37.61 214.133 37.026 213.147 35.447 212.436 34.229 211.656 33.061 195.552 9.061 176.98-12.773 154.963-31.574 136.875-47.016 117.167-59.868 94.968-68.659 80.356-74.439 65.219-78.184 49.471-78.458 14.836-79.064-12.555-65.201-32.153-36.46-38.088-27.76-42.477-18.257-45.94-8.321-46.141-7.75-46.254-7.14-46.346-6.542-46.373-6.373-46.182-6.177-45.862-5.547-30.931-3.731-15.716-1.884 0 0" fill="#ffffff"/>
<path transform="matrix(1,0,0,-1,1035.1179,2195.0377)" d="M0 0C-4.038 2.135-7.724 3.919-11.227 6.008-47.546 27.665-80.155 54.028-109.918 83.987-111.359 85.438-112.723 86.962-114.448 88.786-113.344 89.544-112.486 90.292-111.501 90.78-90.529 101.168-68.508 108.17-45.1 109.753-8.814 112.208 23.412 102.099 50.424 77.144 54.028 73.81 57.404 70.182 60.575 66.428 69.357 56.036 72.897 43.987 71.715 30.424 71.012 22.34 68.622 14.804 65.515 7.381 60.894-3.659 54.877-13.814 47.153-23.413 45.538-22.806 44.005-22.377 42.614-21.674 28.54-14.543 14.489-7.368 0 0" fill="#ffffff"/>
<path transform="matrix(1,0,0,-1,2518.1617,2012.5112)" d="M0 0C-4.407 .397-8.403 .356-12.107 1.359-24.48 4.699-31.774 14.512-32.162 27.705-32.399 35.634-30.634 43.18-27.805 50.525-25.433 56.674-22.445 62.514-18.818 68.002-6.145 87.199 10.224 102.422 30.47 113.408 37.71 117.336 45.311 120.415 53.408 122.062 60.908 123.586 68.399 124.202 75.908 121.843 87.071 118.335 93.253 110.685 94.973 99.279 96.295 90.502 94.589 82.053 91.341 73.983 89.138 68.486 86.583 63.043 83.476 58.016 70.584 37.13 53.226 20.899 31.515 9.407 21.82 4.27 11.588 .78 0 0" fill="#ffffff"/>
<path transform="matrix(1,0,0,-1,2640.3077,2281.7735)" d="M0 0C-.073-5.662-.114-10.785-.191-15.904-.201-16.693-.356-17.486-.474-18.563-20.547-22.021-40.565-24.873-60.657-27.883-61.774-25.858-60.141-24.653-59.452-23.408-48.731-4.024-39.329 15.976-31.473 36.692-28.641 44.16-26.026 51.715-23.294 59.22-22.806 60.561-22.404 61.984-21.647 63.166-19.681 66.245-15.319 66.277-13.49 63.125-12.062 60.661-10.939 57.988-9.945 55.314-4.311 40.223-1.523 24.534-.36 8.526-.168 5.871-.1 3.207 0 0" fill="#ffffff"/>
<path transform="matrix(1,0,0,-1,1534.3963,2235.8194)" d="M0 0C-.589-1.752-1.273-3.477-1.743-5.26-3.285-11.072-4.042-16.948-2.788-22.924-.899-31.948 5.319-37.65 14.398-39.015 22.459-40.224 29.963-38.335 37.048-34.836 53.964-26.469 65.935-13.426 72.65 4.252 74.849 10.05 75.908 16.108 75.26 22.377 73.96 34.959 65.013 42.012 53.262 41.77 45.917 41.615 39.106 39.535 32.701 36.072 17.906 28.075 7.172 16.323 0 0M239.968 56.081C250.529 66.501 260.086 77.737 268.01 90.31 274.06 99.913 279.064 109.977 281.715 121.104 282.874 125.953 283.307 130.821 282.687 135.766 281.574 144.607 276.501 150.296 267.956 152.746 262.7 154.256 257.408 154.233 252.098 153.659 240.533 152.404 229.703 148.595 219.329 143.522 188.859 128.64 163.75 107.263 143.325 80.292 137.358 72.418 132.221 64.023 128.125 55.018 124.699 47.491 122.176 39.726 121.61 31.405 121.368 27.888 121.546 24.412 122.523 21.031 124.238 15.119 128.038 10.99 133.74 8.777 136.013 7.897 138.462 7.358 140.876 6.984 146.624 6.09 152.344 6.684 158.011 7.769 167.55 9.594 176.587 12.934 185.31 17.121 205.502 26.815 223.225 40.014 239.968 56.081M446.263-120.255C436.473-120.314 427.23-120.424 417.997-120.452 405.26-120.483 392.527-120.493 379.799-120.424 364.808-120.347 349.817-120.191 334.831-120.027 330.958-119.981 327.085-119.781 323.444-119.658 322.148-117.979 322.988-116.61 323.334-115.296 328.357-96.442 334.21-77.837 340.921-59.512 341.487-57.975 341.993-56.419 342.531-54.863 341.072-53.248 339.434-54.065 337.951-54.384 322.915-57.637 307.801-60.588 292.878-64.307 246.564-75.839 201.679-91.564 158.17-111.186 154.297-112.938 150.584-113.613 146.337-113.326 125.023-111.856 103.681-110.816 82.372-109.315 60.652-107.788 38.955-105.981 17.258-104.138 1.911-102.833-13.453-101.583-28.736-99.703-44.225-97.801-59.63-95.219-75.055-92.814-85.205-91.236-95.342-89.562-105.447-87.728-127.473-83.736-149.489-79.667-171.487-75.534-182.787-73.412-194.06-71.104-205.333-68.841-207.318-68.444-209.265-67.87-211.154-67.395-211.565-65.251-209.9-64.694-208.969-63.85-186.788-43.682-164.763-23.335-142.29-3.495-115.497 20.164-87.915 42.901-59.936 65.146 7.176 118.494 77.121 167.851 149.512 213.763 157.878 219.074 166.811 223.193 176.113 226.519 181.948 228.608 187.951 229.786 194.22 229.457 205.885 228.85 213.042 221.615 213.485 209.694 213.627 205.98 213.134 202.326 212.016 198.759 211.592 197.408 211.35 196.003 210.894 194.046 212.646 194.434 213.96 194.621 215.2 195.018 234.585 201.186 254.233 206.3 274.32 209.553 294.073 212.746 313.927 213.531 333.832 210.967 345.346 209.484 356.341 206.168 366.523 200.602 387.153 189.32 397.732 171.542 399.384 148.303 400.524 132.267 397.372 116.82 392.367 101.692 385.684 81.496 375.912 62.792 364.644 44.822 356.341 31.587 347.299 18.882 337.687 6.574 336.564 5.142 335.497 3.663 334.402 2.208 340.337-2.208 348.239-3.59 361.181-2.555 362.604-.73 364.137 1.19 365.615 3.148 464.151 133.951 573.955 254.484 695.168 364.598 720.401 387.522 746.14 409.881 772.262 431.788 798.243 453.576 824.594 474.895 851.409 495.638 922.786 550.857 996.797 602.299 1073.334 650.114 1275.391 776.345 1365.19 791.843 1459.301 807.7 1480.802 811.322 1503.89 813.471 1525.693 813.362 1548.766 813.238 1571.618 810.738 1593.922 804.566 1634.233 793.403 1669.597 779.351 1696.522 747.212 1705.861 736.062 1710.113 726.614 1713.584 712.326 1717.088 697.901 1715.582 682.025 1712.494 667.531 1708.1 646.92 1700.774 635.707 1689.209 618.298 1676.071 598.517 1661.399 583.873 1644.132 567.664 1617.672 542.823 1588.466 521.596 1557.608 502.595 1554.282 500.552 1550.906 498.594 1547.599 496.519 1545.606 495.273 1543.461 494.735 1541.153 494.794 1539.15 494.849 1537.59 495.766 1536.687 497.573 1535.779 499.397 1535.998 501.213 1537.284 502.755 1538.192 503.85 1539.309 504.776 1540.378 505.725 1558.224 521.596 1576.7 537.937 1587.809 551.897 1592.973 558.385 1597.266 565.456 1606.226 582.344 1611.454 592.203 1616.157 607.253 1617.553 618.371 1618.479 625.702 1619.83 635.761 1611.513 649.448 1605.651 659.092 1600.619 663.398 1586.007 672.992 1570.765 682.992 1539.67 692.55 1520.291 695.15 1489.365 699.301 1468.927 699.06 1437.891 697.217 1394.597 694.644 1356.034 679.32 1315.199 664.032 1277.572 649.945 1173.516 605.761 1003.375 481.701 972.171 458.946 941.45 435.533 911.61 411.008 890.195 393.398 868.813 375.711 848.07 357.331 811.185 324.635 775.136 291.017 740.168 256.25 703.444 219.735 667.997 182.043 633.987 142.988 595.538 98.832 558.435 53.585 523.344 6.711 518.179-.187 513.152-7.208 508.48-14.439 504.689-20.311 501.742-26.702 500.533-33.677 500.082-36.277 499.899-39.001 500.123-41.62 500.442-45.388 502.495-48.244 506.231-49.334 508.553-50.014 511.044-50.475 513.448-50.442 519.028-50.36 524.416-49.019 529.653-47.099 540.319-43.18 550.246-37.956 559.329-31.054 577.645-17.14 596.094-3.408 614.461 10.438 634.794 25.771 655.086 41.163 675.424 56.496 698.544 73.932 721.678 91.346 744.84 108.736 759.945 120.082 775.045 131.441 790.26 142.646 800.688 150.329 811.628 157.249 823.175 163.143 832.709 168.006 842.924 169.986 853.585 169.133 869.369 167.874 877.65 155.419 877.613 142.117 877.591 135.041 875.921 128.321 873.12 121.825 867.709 109.293 859.21 99.115 849.115 90.191 834.041 76.856 818.795 63.718 803.708 50.401 779.228 28.8 754.826 7.103 730.36-14.512 724.123-20.023 719.187-26.606 715.2-33.787 712.203-39.184 710.332-45.041 711.829-51.533 712.942-56.346 715.301-60.383 718.854-63.531 722.071-66.373 725.957-68.358 730.054-69.858 734.21-71.378 738.48-71.538 742.791-71.218 752.435-70.502 761.947-68.964 771.226-66.2 773.375-65.557 775.497-64.735 777.527-63.769 803.202-51.528 827.23-36.615 849.949-19.498 864.73-8.362 878.685 3.745 892.691 15.812 894.246 17.148 895.802 18.522 897.125 20.073 905.255 29.626 912.905 39.539 919.297 50.356 922.143 55.183 923.384 60.639 924.589 66.026 925.619 70.62 926.021 75.356 926.851 80.004 927.531 83.832 928.229 87.687 929.283 91.428 930.401 95.388 932.307 99.005 934.871 102.313 962.225 137.678 992.659 170.118 1026.523 199.348 1098.826 261.751 1181.614 304.219 1273.462 329.511 1277.613 330.656 1281.791 331.701 1285.943 332.851 1291.39 334.361 1296.636 333.572 1301.463 330.939 1308.22 327.258 1314.018 322.404 1317.96 315.62 1320.401 311.428 1321.518 307.021 1321.053 302.071 1320.222 293.216 1318.566 284.626 1314.84 276.478 1313.028 272.518 1310.874 268.846 1307.946 265.611 1287.248 242.723 1265.259 221.182 1241.514 201.459 1237.722 198.307 1233.972 195.096 1230.09 192.066 1222.959 186.496 1218.511 179.607 1217.631 170.324 1217.139 165.059 1215.624 159.863 1214.315 154.699 1212.923 149.22 1209.935 144.63 1206.089 140.474 1190.629 123.782 1173.047 109.745 1153.731 97.755 1147.937 94.161 1142.011 93.12 1135.487 94.48 1134.689 94.648 1133.859 94.712 1133.07 94.936 1121.764 98.106 1111.126 95.538 1100.829 90.949 1089.717 86.003 1079.561 79.407 1069.625 72.422 1049.935 58.577 1030.921 43.933 1013.813 26.93 1003.448 16.629 993.749 5.752 985.629-6.433 979-16.378 973.512-26.871 969.935-38.367 965.56-52.454 965.036-66.583 968.462-80.894 968.653-81.688 968.845-82.482 969.055-83.367 967.627-84.89 965.724-84.763 963.982-84.977 949.931-86.706 935.884-88.508 921.815-90.096 896.126-92.993 870.451-96.086 844.712-98.503 806.71-102.071 768.672-105.273 730.624-108.316 707.509-110.169 684.356-111.56 661.204-112.929 642.148-114.051 623.07-114.845 604.001-115.752 591.5-116.346 579.005-116.884 566.551-117.44 565.159-115.191 566.327-113.244 566.888-111.382 569.023-104.307 571.327-97.286 573.553-90.237 574.165-88.294 574.721-86.332 575.483-83.768 573.763-84.694 572.486-85.232 571.373-86.003 558.512-94.863 545.844-104.01 534.124-114.343 530.46-117.573 526.669-118.85 521.938-118.905 498.535-119.197 475.132-119.658 451.729-120.073 450.091-120.105 448.453-120.205 446.263-120.255" fill="#ffffff"/>
<path transform="matrix(1,0,0,-1,1464.925,1598.0671)" d="M0 0C-38.358-12.067-74.676-27.642-109.503-46.834-123.125-54.343-134.234-64.242-143.449-76.629-157.203-95.114-167.089-115.511-174.042-137.386-180.602-158.015-184.69-179.169-186.578-200.711-187.345-209.498-187.495-218.357-187.5-227.18-187.514-242.577-187.459-257.983-186.966-273.371-186.003-303.166-182.71-332.746-177.322-362.057-174.096-379.612-170.584-397.121-166.82-414.571-162.358-435.282-159.639-456.227-157.646-477.285-156.734-486.888-155.949-496.514-155.538-506.149-155.041-517.842-154.859-529.552-154.799-541.254-154.699-560.374-155.693-579.448-158.129-598.426-158.809-603.722-159.562-609.014-160.392-614.288-161.387-620.588-162.942-626.751-165.228-632.723-167.792-639.434-170.287-646.172-172.806-652.896-178.189-667.253-186.163-680.104-195.648-692.344-199.375-692.6-202.783-690.88-206.241-689.881-237.614-680.825-268.248-669.621-298.513-657.399-299.626-656.948-300.666-656.304-302.007-655.615-301.555-653.535-301.131-651.564-300.702-649.598-300.26-647.591-299.794-645.593-299.384-643.581-297.445-634.124-295.515-624.671-293.599-615.209-291.268-603.672-290.834-591.938-290.73-580.246-290.538-558.649-292.769-537.194-296.3-515.903-298.928-500.054-303.9-484.817-309.539-469.813-315.032-455.191-321.441-440.953-328.668-427.116-335.889-413.275-343.741-399.753-352.888-387.075-361.692-374.867-369.16-361.938-375.616-348.357-395.036-307.495-408.795-264.876-415.78-220.128-418.791-200.825-420.401-181.414-420.232-161.861-420.173-154.676-420.41-147.486-420.155-140.31-419.603-124.571-415.935-109.439-410.62-94.672-401.496-69.315-387.896-46.469-371.633-25.123-353.12-.835-331.797 20.762-308.385 40.306-257.395 82.874-200.283 114.648-137.874 137.181-114.503 145.62-90.972 153.439-66.798 159.247-31.578 167.705 4.092 172.901 40.283 174.484 62.45 175.451 84.566 175.109 106.711 173.367 121.683 172.185 136.533 170.283 151.286 167.691 188.877 161.086 225.055 149.968 259.147 132.55 283.613 120.054 306.081 104.713 325.688 85.37 346.742 64.598 363.088 40.716 373.152 12.76 379.676-5.351 383.065-24.056 383.339-43.321 383.814-77.139 375.059-108.695 359.835-138.613 344.968-167.833 324.959-193.221 301.537-215.99 271.56-245.141 237.513-268.617 200.529-287.938 147.294-315.748 90.812-333.663 31.606-343.23 8.079-347.034-15.616-349.279-39.43-349.972-55.023-350.429-70.611-350.187-86.2-349.274-100.155-348.458-114.042-347.185-127.851-345.096-135.128-343.991-142.587-342.655-149.662-341.455-154.238-317.19-160.721-228.887-156.414-208.348-155.488-208.458-154.799-208.549-154.024-208.604-130.753-210.237-107.682-208.239-84.74-204.484-41.168-197.349 .652-184.279 41.136-166.825 74.229-152.555 105.816-135.529 135.087-114.393 150.607-103.184 165.255-90.953 178.129-76.72 186.145-67.86 193.38-58.422 198.713-47.66 201.92-41.191 204.329-34.462 205.114-27.204 206.3-16.245 202.915-6.985 195.104 .725 189.434 6.318 182.596 9.995 175.237 12.751 164.398 16.811 153.111 18.964 141.624 19.977 119.22 21.948 96.93 20.516 74.726 17.267 49.507 13.581 24.781 7.696 0 0" fill="#ffffff"/>
<path transform="matrix(1,0,0,-1,2076.9669,2487.5557)" d="M0 0C-10.588-.429-20.634-.913-30.693-1.232-44.644-1.665-58.599-2.048-72.555-2.322-84.256-2.555-95.958-2.624-107.66-2.701-120.593-2.778-133.531-2.847-146.46-2.801-156.113-2.769-165.762-2.605-175.41-2.418-186.701-2.199-197.993-1.925-209.279-1.615-222.413-1.246-235.552-.967-248.677-.388-267.96 .465-287.24 1.428-306.51 2.559-322.089 3.467-337.659 4.558-353.216 5.794-375.328 7.55-397.431 9.453-419.525 11.409-436.104 12.874-452.673 14.42-469.224 16.104-497.632 18.992-526.062 21.692-554.416 25.073-580.926 28.229-607.354 32.107-633.8 35.789-650.278 38.084-666.742 40.433-683.17 43.042-701.427 45.931-719.648 49.051-737.851 52.249-750.186 54.416-762.504 56.733-774.771 59.261-788.444 62.08-802.075 65.104-815.679 68.248-829.484 71.437-843.279 74.681-856.984 78.252-876.049 83.225-895.141 88.166-914.023 93.791-937.618 100.812-961.126 108.184-984.465 116.017-1009.945 124.562-1035.547 132.778-1060.442 142.992-1132.025 172.354-1195.496 213.941-1249.369 269.593-1273.795 294.822-1294.159 323.102-1308.197 355.615-1319.392 381.546-1326.021 408.467-1326.865 436.733-1327.435 455.917-1325.615 474.854-1321.386 493.613-1317.485 510.916-1311.591 527.541-1304.903 543.886-1297.125 562.878-1285.784 579.685-1272.198 595.009-1258.211 610.78-1242.207 624.242-1224.903 636.19-1180.624 666.747-1131.883 686.414-1078.987 695.912-1073.758 696.852-1067.787 697.978-1062.121 698.937-1062.121 696.281-1062.066 695.182-1061.961 693.622-1060.519 671.888-1058.083 650.269-1053.968 628.873-1051.295 614.977-1047.453 601.382-1042.746 586.856-1043.576 586.555-1047.161 586.008-1048.266 585.798-1055.72 584.356-1063.225 583.179-1070.638 581.56-1084.511 578.531-1097.978 574.219-1110.738 567.883-1119.566 563.508-1128.416 559.169-1137.216 554.735-1148.183 549.215-1157.65 541.564-1165.82 532.577-1180.131 516.843-1192.011 499.397-1200.355 479.708-1205.61 467.308-1208.826 454.416-1209.415 440.921-1210.086 425.675-1207.061 411.108-1201.194 397.093-1194.374 380.812-1184.451 366.496-1172.955 353.234-1158.092 336.085-1140.957 321.418-1123.056 307.55-1105.779 294.16-1086.915 283.367-1067.873 272.846-1010.496 241.14-951.277 213.421-889.858 190.451-867.162 181.961-844.169 174.452-820.739 168.188-796.14 161.61-771.5 155.214-746.692 149.502-732.686 146.272-718.613 143.334-704.507 140.583-684.552 136.702-664.571 132.947-644.543 129.466-630.378 127.002-616.117 125.119-601.906 122.924-570.83 118.139-539.566 114.868-508.298 111.669-480.917 108.859-453.499 106.359-426.072 104.051-403.969 102.181-381.843 100.593-359.703 99.251-333.882 97.687-308.043 96.305-282.199 95.251-260.045 94.343-237.874 93.91-215.707 93.435-196.824 93.034-177.933 92.737-159.042 92.627-142.828 92.527-126.606 92.691-110.388 92.855-92.527 93.043-74.663 93.18-56.811 93.654-35.67 94.215-14.544 94.963 6.579 95.921 30.365 97.002 54.151 98.17 77.911 99.717 104.945 101.482 131.975 103.417 158.955 105.826 189.202 108.526 219.407 111.715 249.603 114.917 289.192 119.115 328.636 124.461 368.024 130.237 422.641 138.248 477.011 147.646 531.222 158.015 623.01 175.575 708.371 209.612 787.842 258.444 821.108 278.882 850.666 304.023 875.848 334.028 896.112 358.166 911.87 384.904 921.911 414.885 925.898 426.792 928.795 438.946 930.784 451.35 934.552 474.831 935.013 498.389 932.011 521.943 930.816 531.281 928.604 540.506 926.523 549.707 920.953 574.361 914.347 598.718 904.757 622.162 902.354 628.052 899.735 633.854 897.267 639.721 896.715 641.031 896.14 642.408 896.008 643.795 895.665 647.44 899.069 650.045 902.5 648.859 905.104 647.96 907.043 646.272 908.576 643.932 914.657 634.657 921.007 625.551 926.952 616.195 941.847 592.755 954.972 568.357 965.771 542.755 975.775 519.032 983.74 494.676 987.403 469.11 990.812 445.387 991.226 421.628 987.034 397.937 984.853 385.602 982.687 373.261 980.159 360.994 975.733 339.53 967.791 319.333 957.536 300.004 941.071 268.978 919.137 242.322 893.074 218.946 863.024 191.989 829.165 170.762 793.202 152.76 756.765 134.521 718.727 120.301 679.84 108.271 649.831 98.987 619.361 91.51 588.804 84.27 545.684 74.046 502.49 64.169 459.037 55.465 387.997 41.232 316.523 29.635 244.648 20.575 199.243 14.845 153.718 10.214 108.088 6.583 73.709 3.85 39.288 1.879 4.854 .068 3.421-.009 1.98 .032 0 0" fill="#ffffff"/>
<path transform="matrix(1,0,0,-1,1065.2478,2492.621)" d="M0 0C-22.327-13.28-45.319-24.083-69.571-32.126-92.098-39.589-115.21-44.061-138.951-44.781-168.499-45.68-196.455-39.64-222.304-24.895-229.635-20.712-236.487-15.853-242.819-10.269-272.527 15.912-291.382 48.198-297.965 87.473-301.765 110.132-302.002 132.801-299.315 155.575-295.114 191.24-284.261 224.849-268.098 256.82-267.646 257.705-266.332 260.283-266.332 260.283-266.332 260.283-263.741 257.563-262.696 256.455-246.528 239.201-229.357 223.02-211.108 207.983-195.73 195.319-179.685 183.567-163.029 172.627-149.297 163.608-135.132 155.346-120.716 147.5-120.032 147.125-117.354 145.807-117.354 145.807-117.354 145.807-122.012 143.667-123.7 142.737-138.503 134.557-149.808 122.979-157.445 107.883-161.304 100.255-163.212 92.117-163.312 83.549-163.371 78.75-162.422 74.165-160.534 69.776-158.627 65.355-155.775 61.706-151.834 58.832-141.802 51.51-130.666 49.493-118.577 51.437-95.296 55.196-73.987 63.54-54.822 77.527-43.216 86.003-31.515 94.566-20.954 104.872-8.837 100.771 3.171 95.857 15.182 91.802 27.039 87.801 38.937 83.928 50.858 80.114 62.942 76.245 75.077 72.518 87.285 68.704 80.452 57.591 30.524 18.348 0 0" fill="#ffffff"/>
<path transform="matrix(1,0,0,-1,1167.3298,2477.7413)" d="M0 0C-7.085-11.227-12.423-26.912-15.068-39.945-16.884-48.887-17.34-57.856-15.972-66.875-14.776-74.763-11.788-81.957-6.46-87.915 1.483-96.788 11.857-100.014 23.444-99.794 34.503-99.589 44.849-96.373 54.854-91.879 63.891-87.815 72.272-82.637 80.16-76.697 90.853-68.654 99.672-58.896 108.796-48.937 119.498-37.249 131.058-24.553 138.828-16.651 151.263-4.01 156.209 .493 165.41 9.635 152.491 13.216 57.687 32.299 30.301 41.651 30.301 41.651 17.012 26.957 0 0" fill="#ffffff"/>
<path transform="matrix(1,0,0,-1,2371.9488,2495.2012)" d="M0 0C19.599 2.765 38.705 5.383 57.774 8.244 107.495 15.698 156.843 25.191 205.958 35.936 208.449 36.478 210.954 37.61 214.133 37.026 213.147 35.447 212.436 34.229 211.656 33.061 195.552 9.061 176.98-12.773 154.963-31.574 136.875-47.016 117.167-59.868 94.968-68.659 80.356-74.439 65.219-78.184 49.471-78.458 14.836-79.064-12.555-65.201-32.153-36.46-38.088-27.76-42.477-18.257-45.94-8.321-46.141-7.75-46.254-7.14-46.346-6.542-46.373-6.373-46.182-6.177-45.862-5.547-30.931-3.731-15.716-1.884 0 0" fill="#ffffff"/>
<path transform="matrix(1,0,0,-1,1035.1179,2195.0377)" d="M0 0C-4.038 2.135-7.724 3.919-11.227 6.008-47.546 27.665-80.155 54.028-109.918 83.987-111.359 85.438-112.723 86.962-114.448 88.786-113.344 89.544-112.486 90.292-111.501 90.78-90.529 101.168-68.508 108.17-45.1 109.753-8.814 112.208 23.412 102.099 50.424 77.144 54.028 73.81 57.404 70.182 60.575 66.428 69.357 56.036 72.897 43.987 71.715 30.424 71.012 22.34 68.622 14.804 65.515 7.381 60.894-3.659 54.877-13.814 47.153-23.413 45.538-22.806 44.005-22.377 42.614-21.674 28.54-14.543 14.489-7.368 0 0" fill="#ffffff"/>
<path transform="matrix(1,0,0,-1,2518.1617,2012.5112)" d="M0 0C-4.407 .397-8.403 .356-12.107 1.359-24.48 4.699-31.774 14.512-32.162 27.705-32.399 35.634-30.634 43.18-27.805 50.525-25.433 56.674-22.445 62.514-18.818 68.002-6.145 87.199 10.224 102.422 30.47 113.408 37.71 117.336 45.311 120.415 53.408 122.062 60.908 123.586 68.399 124.202 75.908 121.843 87.071 118.335 93.253 110.685 94.973 99.279 96.295 90.502 94.589 82.053 91.341 73.983 89.138 68.486 86.583 63.043 83.476 58.016 70.584 37.13 53.226 20.899 31.515 9.407 21.82 4.27 11.588 .78 0 0" fill="#ffffff"/>
<path transform="matrix(1,0,0,-1,2640.3077,2281.7735)" d="M0 0C-.073-5.662-.114-10.785-.191-15.904-.201-16.693-.356-17.486-.474-18.563-20.547-22.021-40.565-24.873-60.657-27.883-61.774-25.858-60.141-24.653-59.452-23.408-48.731-4.024-39.329 15.976-31.473 36.692-28.641 44.16-26.026 51.715-23.294 59.22-22.806 60.561-22.404 61.984-21.647 63.166-19.681 66.245-15.319 66.277-13.49 63.125-12.062 60.661-10.939 57.988-9.945 55.314-4.311 40.223-1.523 24.534-.36 8.526-.168 5.871-.1 3.207 0 0" fill="#ffffff"/>
<path transform="matrix(1,0,0,-1,2982.0909,1770.2107)" d="M0 0C-18.846 24.79-16.619 55.296-5.972 87.235 3.877 116.774 23.636 135.602 59.973 134.284 76.095 133.7 91.396 113.038 87.532 95.958 83.973 80.219 71.122 75.748 60.794 63.353 50.47 50.954 40.611 30.634 48.896 16.788 61.396-4.101 88.476-7.048 111.524 .785 131.984 7.737 151.354 1.259 157.395-17.057 163.513-35.593 163.097-42.623 158.841-61.428 154.589-80.237 151.715-93.668 147.532-112.491 143.052-132.636 140.027-148.44 135.739-171.907 132.664-188.736 132.965-202.915 123.85-203.973 114.735-205.032 112.746-188.572 110.273-179.735 98.75-138.567 75.721-104.462 53.549-67.801 41.318-47.564 27.545-36.227 0 0"/>
<path transform="matrix(1,0,0,-1,2857.04,1998.9434)" d="M0 0C25.324 17.842 43.111 42.477 44.361 73.426 45.493 101.56 37.668 126.373-7.29 132.176-17.35 133.476-23.791 143.576-20.465 153.157-1.894 206.647 19.143 257.536 55.324 297.149 60.917 303.271 70.734 296.934 67.513 289.297 49.475 246.56 57.309 217.016 65.296 181.843 75.351 137.546 106.446 119.22 112.829 47.085 117.414-4.735 115.917-38.162 93.18-77.477 70.433-116.797 22.432-145.807-19.881-129.297-47.683-118.454-56.191-80.666-45.265-52.896-34.338-25.127-9.663-6.811 0 0"/>
<g inkscape:groupmode="layer" inkscape:label="Layer 2">
</g>
</g>
</g>
</g>
</svg>
