<svg xmlns="http://www.w3.org/2000/svg" xmlns:xlink="http://www.w3.org/1999/xlink" xmlns:inkscape="http://www.inkscape.org/namespaces/inkscape" version="1.1" width="4000" height="4000" viewBox="0 0 4000 4000">
<defs>
<clipPath id="clip_1">
<path transform="matrix(1,0,0,-1,0,4000)" d="M1150 627.407H2850V3372.593H1150Z"/>
</clipPath>
</defs>
<g>
<g inkscape:groupmode="layer" inkscape:label="Layer 1">
</g>
<g inkscape:groupmode="layer" inkscape:label="Layer 2">
<g clip-path="url(#clip_1)">
<path transform="matrix(1,0,0,-1,1571.8665,969.375)" d="M0 0C0 0-4.519 20.689 6.434 31.663 6.434 31.663-2.204 57.149 7.523 62.021 7.523 62.021-.045 86.311 11.517 93.199 20.452 98.523 862.461 97.067 862.461 97.067 862.461 97.067 898.386 97.267 903.639 92.562 909.115 87.658 906.545 66.187 906.545 66.187 906.545 66.187 909.762 55.92 909.904 52.345 910.374 40.594 908.534 36.493 908.534 36.493 908.534 36.493 911.21 29.281 911.154 19.954 911.131 16.025 909.818 6.209 909.818 6.209 909.818 6.209 970.89-120.86 1008.833-291.494 1046.777-462.129 1061.589-676.332 1073.91-780.703 1109.449-1081.771 1150.544-2033.031 1150.544-2033.031L462.15-2056.762 444.676-853.046 386.808-2057.547-295.941-2039.756C-295.941-2039.756-242.862-1364.634-217.888-1139.595-205.112-1024.469-175.858-802.915-148.091-597.92-115.784-359.426-84.542-185.494-39.182-62.088-32.849-44.861 0 0 0 0" fill="#f0f0f0"/>
<path transform="matrix(1,0,0,-1,1571.8665,969.375)" stroke-width=".1" stroke-linecap="butt" stroke-miterlimit="10" stroke-linejoin="miter" fill="none" stroke="#000000" d="M0 0C0 0-4.519 20.689 6.434 31.663 6.434 31.663-2.204 57.149 7.523 62.021 7.523 62.021-.045 86.311 11.517 93.199 20.452 98.523 862.461 97.067 862.461 97.067 862.461 97.067 898.386 97.267 903.639 92.562 909.115 87.658 906.545 66.187 906.545 66.187 906.545 66.187 909.762 55.92 909.904 52.345 910.374 40.594 908.534 36.493 908.534 36.493 908.534 36.493 911.21 29.281 911.154 19.954 911.131 16.025 909.818 6.209 909.818 6.209 909.818 6.209 970.89-120.86 1008.833-291.494 1046.777-462.129 1061.589-676.332 1073.91-780.703 1109.449-1081.771 1150.544-2033.031 1150.544-2033.031L462.15-2056.762 444.676-853.046 386.808-2057.547-295.941-2039.756C-295.941-2039.756-242.862-1364.634-217.888-1139.595-205.112-1024.469-175.858-802.915-148.091-597.92-115.784-359.426-84.542-185.494-39.182-62.088-32.849-44.861 0 0 0 0Z"/>
<path transform="matrix(1,0,0,-1,1571.8259,969.5703)" d="M0 0C0 0 22.897 1.781 48.8 2.772 80.343 3.979 308.978-4.726 397.254-2.945 531.624-.233 769.196 16.371 903.284 7.26 904.92 7.149 909.801 6.503 909.801 6.503" fill="#ededed"/>
<path transform="matrix(1,0,0,-1,1571.8259,969.5703)" stroke-width=".1" stroke-linecap="butt" stroke-miterlimit="10" stroke-linejoin="miter" fill="none" stroke="#000000" d="M0 0C0 0 22.897 1.781 48.8 2.772 80.343 3.979 308.978-4.726 397.254-2.945 531.624-.233 769.196 16.371 903.284 7.26 904.92 7.149 909.801 6.503 909.801 6.503"/>
<path transform="matrix(1,0,0,-1,2019.4683,971.20999)" d="M0 0C0 0 11.153-269.902 10.98-505.052 10.903-610.478-.528-714.501-.572-774.432-.58-784.65-3.813-871.526-3.813-871.526" fill="#ededed"/>
<path transform="matrix(1,0,0,-1,2019.4683,971.20999)" stroke-width=".1" stroke-linecap="butt" stroke-miterlimit="10" stroke-linejoin="miter" fill="none" stroke="#000000" d="M0 0C0 0 11.153-269.902 10.98-505.052 10.903-610.478-.528-714.501-.572-774.432-.58-784.65-3.813-871.526-3.813-871.526"/>
<path transform="matrix(1,0,0,-1,2454.691,963.4287)" d="M0 0 140.016-361.979Z" fill="#ededed"/>
<path transform="matrix(1,0,0,-1,2454.691,963.4287)" stroke-width=".1" stroke-linecap="butt" stroke-miterlimit="10" stroke-linejoin="miter" fill="none" stroke="#000000" d="M0 0 140.016-361.979 0 0Z"/>
<path transform="matrix(1,0,0,-1,1464.821,1299.1289)" d="M0 0 123.091 327.007Z" fill="#ededed"/>
<path transform="matrix(1,0,0,-1,1464.821,1299.1289)" stroke-width=".1" stroke-linecap="butt" stroke-miterlimit="10" stroke-linejoin="miter" fill="none" stroke="#000000" d="M0 0 123.091 327.007 0 0Z"/>
<path transform="matrix(1,0,0,-1,2022.3433,2155.1817)" d="M0 0 648.905 55.701" fill="#ededed"/>
<path transform="matrix(1,0,0,-1,2022.3433,2155.1817)" stroke-width=".1" stroke-linecap="butt" stroke-miterlimit="10" stroke-linejoin="miter" fill="none" stroke="#000000" d="M0 0 648.905 55.701"/>
<path transform="matrix(1,0,0,-1,1996.644,2155.1817)" d="M0 0-642.479 55.701" fill="#ededed"/>
<path transform="matrix(1,0,0,-1,1996.644,2155.1817)" stroke-width=".1" stroke-linecap="butt" stroke-miterlimit="10" stroke-linejoin="miter" fill="none" stroke="#000000" d="M0 0-642.479 55.701"/>
<path transform="matrix(1,0,0,-1,2261.1339,1960.0332)" d="M0 0C-3.592 32.625 40.701 64.269 98.931 70.679 157.16 77.089 207.275 55.838 210.866 23.213 214.458-9.413 170.165-41.057 111.936-47.465 53.707-53.876 3.592-32.624 0 0" fill="#f0f0f0"/>
<path transform="matrix(1,0,0,-1,2340.9434,1969.9317)" d="M0 0C.943 1.184 1.53 2.444 .901 3.958-1.256 4.736-3.408 3.228-3.615 .825-3.668 .217-3.862-.548-3.215-.885-2.575-1.219-1.796-1.216-1.116-.831-.758-.628-.441-.354 0 0M13.899 12.463C12.989 13.311 11.944 13.037 11.036 12.615 8.443 11.413 6.558 9.412 5.111 6.977 3.955 5.032 3.954 3.84 5.103 2.663 5.907 2.424 6.611 2.719 7.328 3.018 9.727 4.012 11.542 5.749 12.924 7.848 13.762 9.121 14.667 10.58 13.899 12.463M26.894-3.942C24.048-4.35 21.28-4.558 18.408-4.616 18.678-3.164 18.759-1.757 19.294-.266 17.018-.818 14.981-1.602 12.974-2.448 11.159-3.214 9.416-4.123 7.671-5.041 6.198-5.815 4.502-5.518 2.928-5.53-3.702-5.583-10.335-5.447-16.922-4.539-16.981-4.532-17.033-4.474-17.258-4.332-16.393-3.362-15.562-2.397-14.698-1.467-10.116 3.47-5.239 8.092-.044 12.379 1.996 14.063 3.946 15.872 6.252 17.192 8.059 18.228 9.069 17.718 9.416 15.702 10.872 16.12 12.331 16.521 13.779 16.96 15.423 17.455 17.112 17.478 18.724 17.055 21.831 16.239 22.425 13.264 21.851 10.901 21.525 9.561 21.126 8.214 20.567 6.959 20.027 5.751 19.237 4.654 18.558 3.511 19.141 3.048 19.728 3.098 20.295 3.394 22.638 7.23 25.152 10.909 27.748 14.536 30.07 17.779 32.508 20.937 35.101 23.96 38.947 28.446 42.946 32.791 47.221 36.894 50.261 39.812 53.406 42.604 56.549 45.396 58.854 47.444 61.401 49.215 63.829 51.125 67.106 53.702 70.448 56.188 73.979 58.416 78.619 61.345 83.52 63.724 88.838 65.077 92.159 65.922 95.59 66.12 98.911 64.925 101.579 63.964 105.766 61.46 105.842 57.681 105.88 55.714 105.287 53.932 104.314 52.262 102.286 48.78 99.353 46.153 96.21 43.728 95.818 43.425 95.472 43.223 94.864 43.577 95.645 44.54 96.441 45.449 97.155 46.419 98.436 48.158 99.515 50.007 99.811 52.201 100.115 54.467 98.425 56.506 96.126 56.818 91.702 57.419 87.625 56.338 83.537 54.842 78.035 52.827 73.218 49.729 68.573 46.222 62.428 41.582 56.643 36.558 51.311 31.012 47.975 27.541 44.812 23.919 41.789 20.162 38.938 16.618 36.284 12.941 33.75 9.179 32.408 7.186 30.983 5.229 29.989 3.016 29.769 2.522 29.631 2.034 29.814 1.365 31.175 .682 32.206 1.56 33.116 2.358 36.547 5.371 39.898 8.475 43.313 11.506 45.429 13.381 47.379 15.446 49.739 17.04 50.739 17.717 52.356 17.857 53.023 17.184 54 16.198 53.813 15.132 53.172 14.033 51.612 11.369 49.086 9.564 47.175 7.212 46.181 5.988 44.874 5.037 44.058 3.652 43.728 3.089 43.376 2.507 43.906 1.927 44.441 1.344 44.995 .803 45.969 1.025 48.399 1.586 50.272 3.105 52.083 4.641 53.917 6.193 55.77 7.799 56.75 10.11 56.858 10.365 57.003 10.635 57.008 10.899 57.087 14.192 59.309 16.346 61.18 18.644 64.217 22.373 67.922 25.356 72.08 27.744 74.383 29.065 76.75 30.295 79.342 30.985 80.776 31.368 81.866 30.464 81.926 28.993 81.997 27.227 80.887 26.087 79.87 24.9 78.856 23.721 77.817 22.559 76.723 21.454 76.165 20.893 75.947 20.259 75.875 19.52 75.722 17.934 72.873 14.456 71.352 14.428 69.947 14.401 68.767 14.075 67.701 13.264 64.96 11.183 62.487 8.839 61.074 5.619 60.517 4.35 60.723 2.958 60.879 1.515 52.209-.502 43.442-1.922 34.656-3.077 34.272-2.68 34.712-2.109 34.253-1.774 33.909-1.633 33.626-1.848 33.447-2.076 32.113-3.784 30.192-3.68 28.334-3.795 27.885-3.823 27.437-3.886 26.894-3.942" fill="#404040"/>
<path transform="matrix(1,0,0,-1,2348.6807,1918.2109)" d="M0 0C1.594-1.3 3.104-2.533 4.133-4.314 5.851-7.282 6.453-10.331 5.5-13.678 3.818-19.592-.17-23.544-5.194-26.736-7.929-28.476-10.875-29.654-13.883-30.752-17.168-31.951-24.133-32.722-27.735-32.208-28.587-29.352-28.874-26.399-28.926-23.271-27.225-23.303-25.633-22.929-24.019-22.532-21.202-21.839-18.604-20.684-16.068-19.351-12.974-17.729-10.217-15.655-7.907-13.013-7.093-12.084-6.495-11.003-6.178-9.841-5.869-8.71-6.32-7.767-7.426-7.166-9.42-6.086-11.476-6.417-13.546-6.803-18.623-7.751-23.187-9.917-27.354-12.886-28.799-13.919-29.568-15.631-30.087-17.319-31.159-20.816-30.942-24.351-30.47-27.958-29.961-31.844-28.531-35.454-27.717-39.23-26.779-43.579-26.04-48-27.118-52.447-27.389-53.565-27.729-54.741-28.666-55.623-31.154-55.386-33.495-54.537-36.01-53.879-35.358-51.375-35.566-48.999-35.957-46.561-36.411-43.709-37.566-41.22-39.066-38.854-40.479-36.627-42.412-34.761-43.54-32.326-45.086-28.993-46.295-25.61-46.685-21.887-47.286-16.145-44.448-11.971-40.848-8.155-37.443-4.547-33.3-1.963-28.781 .123-22.443 3.048-15.833 3.939-8.988 3.228-5.801 2.896-2.832 1.685 0 0" fill="#404040"/>
<path transform="matrix(1,0,0,-1,2335.167,1983.541)" d="M0 0C-6.526 .077-12.887 .66-19.224 1.792-22.741 2.42-26.195 3.244-29.661 4.066-34.694 5.261-39.24 7.499-43.335 10.603-46.792 13.224-49.581 16.443-50.611 20.799-51.252 23.511-51.081 26.273-50.317 28.96-48.964 33.723-45.52 36.631-41.393 38.933-39.383 40.055-37.27 40.843-34.859 41.359-34.59 38.828-33.884 36.461-33.081 33.995-35.194 33.404-37.063 32.677-38.749 31.48-42.457 28.847-45.192 23.08-40.856 18.545-38.194 15.76-34.905 14.043-31.392 12.598-28.898 11.57-26.37 10.656-23.828 9.783-20.282 8.564-16.624 7.779-12.918 7.237-3.327 5.834 6.313 5.451 15.99 5.996 20.789 6.268 25.592 6.455 30.383 6.817 33.219 7.031 36.031 7.544 38.861 7.871 43.958 8.461 49.004 9.381 54.027 10.384 58.53 11.283 63.007 12.339 67.458 13.511 72.041 14.718 76.628 15.884 80.92 17.894 85.943 20.246 90.725 23.078 94.313 27.411 97.691 31.487 99.325 36.146 98.012 41.557 97.412 44.027 96.502 46.354 95.376 48.611 95.136 49.092 95.126 49.087 95.132 49.795 95.686 50.025 95.855 49.519 96.098 49.242 98.419 46.595 100.308 43.642 101.577 40.383 102.622 37.698 102.589 34.813 102.311 31.937 102.061 29.333 101.246 26.947 99.911 24.728 98.774 22.839 97.324 21.206 95.695 19.732 93.076 17.362 90.051 15.591 86.907 14.055 84.382 12.821 81.75 11.81 79.047 10.989 76.703 10.278 74.403 9.422 72.065 8.687 68.176 7.465 64.244 6.408 60.282 5.43 57.723 4.802 55.152 4.225 52.581 3.681 47.799 2.668 42.971 1.902 38.113 1.302 34.83 .896 31.543 .547 28.253 .284 24.362-.026 20.456-.27 16.554-.288 11.073-.314 5.587-.108 0 0" fill="#404040"/>
<path transform="matrix(1,0,0,-1,2292.8614,1976.0313)" d="M0 0C1.919-1.475 4.03-2.459 6.22-3.477 4.917-4.617 3.639-5.636 3.717-7.553 3.789-9.301 5.202-10.267 6.929-9.732 9.383-8.971 11.254-7.395 12.985-5.58 15.382-6.349 17.833-6.769 20.489-7.332 19.298-8.554 18.293-9.711 17.158-10.72 14.756-12.854 12.063-14.544 9.009-15.591 3.334-17.535-1.565-15.937-4.378-10.857-6.242-7.49-6.422-3.677-5.256 .081-4.944 1.092-4.868 2.197-4.148 3.135-2.826 2.021-1.584 .843 0 0" fill="#404040"/>
<path transform="matrix(1,0,0,-1,2426.9395,1933.1182)" d="M0 0C.292-1.284 1.192-2.151 1.756-3.198 3.38-6.213 3.906-9.375 3.872-12.793 3.834-16.675 1.836-18.888-1.392-20.421-2.925-21.151-4.182-20.5-5.332-19.624-6.483-18.747-6.54-17.492-6.268-16.147-5.889-14.282-4.701-12.994-3.393-11.746-1.57-10.007-.01-6.496-2.125-3.829-3.182-3.332-4.355-3.38-5.419-3.173-6.254-2.471-5.724-1.657-5.591-.994-4.924 2.355-3.718 5.496-1.647 8.261-1.234 8.811-.826 9.232 .181 8.639-1.825 5.879-1.334 2.97 0 0" fill="#404040"/>
<path transform="matrix(1,0,0,-1,2437.8228,1928.2529)" d="M0 0C.688 .281 1.31 .226 1.939 .131 3.683-1.153 3.781-2.956 3.374-4.816 2.826-7.312 2.724-9.849 2.468-12.371 2.389-13.146 2.282-13.761 1.129-13.695 .715-12.083 .123-10.492-.772-9.017-2.348-6.419-4.21-4.05-6.451-2.023-9.403 .641-9.441 3.861-7.619 6.729-6.903 7.854-5.706 8.428-4.279 8.288-3.301 8.192-2.703 7.638-2.336 6.766-1.965 5.874-2.519 5.188-3.049 4.734-3.962 3.954-4.354 2.97-4.582 1.894-4.915 .31-2.909-1.061-1.136-.487-.773-.369-.432-.184 0 0" fill="#404040"/>
<path transform="matrix(1,0,0,-1,2312.2276,1989.2315)" d="M0 0C1.161 1.795 2.291 3.515 3.511 5.374 6.51 4.857 9.533 4.415 12.835 4.153 10.92 1.987 9.204 .069 7.869-2.138 6.928-3.697 5.82-5.042 4.23-6.019 2.886-6.847 1.566-7.092 .031-6.545-1.689-4.437-.917-2.258 0 0" fill="#404040"/>
<path transform="matrix(1,0,0,-1,2391.7725,1982.5654)" d="M0 0C-.208 .4-.391 .729-.631 1.162 5.173 2.356 10.819 3.847 16.558 5.653 14.377 1.704 11.696-1.418 7.485-2.938 4.891-3.874 2.034-2.795 0 0" fill="#404040"/>
<path transform="matrix(1,0,0,-1,2296.6636,1963.3135)" d="M0 0C3.464 2.169 8.494 2.052 11.351-1.189 12.16-2.11 12.086-4.611 11.23-5.934 11.005-6.278 10.768-6.618 10.565-6.919 6.351-5.564 2.593-3.429-.708-.522-.637-.101-.309-.133 0 0" fill="#404040"/>
<path transform="matrix(1,0,0,-1,2405.977,1944.1602)" d="M0 0C-1.145-1.664-2.419-3.057-4.363-3.659-5.225-3.926-6.021-3.945-6.689-3.271-7.363-2.593-7.514-1.798-7.221-.864-6.425 1.672-4.819 3.47-2.434 4.604-1.69 4.959-.937 4.783-.283 4.783 1.74 3.257 .794 1.661 0 0" fill="#404040"/>
<path transform="matrix(1,0,0,-1,2408.8052,1961.1387)" d="M0 0C.691 .28 1.091 .097 1.337-.944 1.652-2.28 2.292-3.587 1.92-5.166 .737-5.246-.355-6.043-1.878-5.985-1.343-3.933-.279-2.122 0 0" fill="#404040"/>
<path transform="matrix(1,0,0,-1,2340.1265,1969.25)" d="M0 0C.943 1.184 1.53 2.444 .902 3.959-1.255 4.736-3.407 3.228-3.615 .826-3.668 .218-3.862-.547-3.215-.884-2.575-1.219-1.795-1.216-1.116-.83-.758-.627-.44-.353 0 0M13.9 12.463C12.989 13.312 11.944 13.038 11.036 12.616 8.443 11.412 6.559 9.413 5.111 6.977 3.956 5.032 3.954 3.841 5.103 2.663 5.907 2.424 6.611 2.72 7.328 3.017 9.728 4.012 11.542 5.75 12.924 7.848 13.763 9.122 14.667 10.58 13.9 12.463M26.896-3.943C24.048-4.349 21.28-4.558 18.408-4.616 18.679-3.163 18.759-1.756 19.294-.266 17.018-.817 14.981-1.601 12.974-2.447 11.16-3.213 9.416-4.122 7.671-5.04 6.198-5.814 4.502-5.519 2.928-5.531-3.702-5.582-10.333-5.446-16.922-4.539-16.979-4.532-17.033-4.473-17.258-4.332-16.393-3.362-15.562-2.397-14.698-1.466-10.115 3.469-5.238 8.092-.044 12.38 1.996 14.063 3.947 15.871 6.252 17.192 8.06 18.229 9.069 17.718 9.416 15.701 10.873 16.121 12.331 16.522 13.779 16.96 15.422 17.456 17.112 17.478 18.724 17.055 21.831 16.24 22.425 13.264 21.851 10.901 21.526 9.562 21.127 8.215 20.568 6.96 20.029 5.751 19.238 4.655 18.558 3.511 19.141 3.049 19.728 3.098 20.296 3.395 22.638 7.231 25.154 10.91 27.748 14.535 30.07 17.779 32.508 20.938 35.101 23.961 38.948 28.447 42.946 32.791 47.221 36.895 50.261 39.812 53.407 42.604 56.55 45.397 58.854 47.443 61.403 49.216 63.83 51.126 67.107 53.702 70.448 56.188 73.979 58.417 78.62 61.345 83.521 63.725 88.838 65.077 92.159 65.922 95.591 66.121 98.911 64.926 101.58 63.965 105.768 61.459 105.842 57.681 105.88 55.715 105.287 53.933 104.315 52.263 102.286 48.779 99.353 46.154 96.21 43.729 95.82 43.426 95.474 43.223 94.864 43.576 95.645 44.541 96.442 45.45 97.156 46.42 98.437 48.159 99.516 50.006 99.812 52.202 100.115 54.467 98.425 56.505 96.127 56.817 91.702 57.42 87.626 56.339 83.537 54.843 78.035 52.828 73.22 49.729 68.573 46.223 62.428 41.582 56.643 36.559 51.311 31.013 47.976 27.541 44.812 23.919 41.79 20.163 38.938 16.619 36.286 12.941 33.751 9.179 32.409 7.187 30.983 5.229 29.989 3.016 29.769 2.523 29.632 2.035 29.814 1.366 31.176 .681 32.206 1.56 33.116 2.358 36.548 5.37 39.898 8.476 43.313 11.507 45.429 13.381 47.38 15.447 49.74 17.041 50.739 17.716 52.356 17.858 53.024 17.184 54 16.199 53.813 15.131 53.172 14.034 51.612 11.37 49.086 9.563 47.176 7.213 46.181 5.989 44.874 5.038 44.058 3.651 43.728 3.09 43.376 2.507 43.907 1.928 44.442 1.345 44.995 .802 45.969 1.024 48.4 1.587 50.272 3.105 52.083 4.642 53.918 6.194 55.771 7.8 56.751 10.111 56.858 10.366 57.003 10.634 57.008 10.9 57.087 14.191 59.309 16.345 61.18 18.645 64.217 22.374 67.922 25.357 72.082 27.744 74.383 29.066 76.751 30.295 79.342 30.985 80.777 31.369 81.866 30.465 81.926 28.993 81.997 27.227 80.888 26.087 79.87 24.901 78.856 23.722 77.817 22.56 76.723 21.455 76.165 20.894 75.947 20.26 75.875 19.52 75.722 17.934 72.872 14.456 71.353 14.427 69.947 14.4 68.767 14.074 67.701 13.264 64.96 11.182 62.487 8.84 61.074 5.618 60.518 4.351 60.723 2.958 60.879 1.516 52.209-.503 43.442-1.922 34.656-3.076 34.272-2.679 34.713-2.108 34.253-1.774 33.91-1.634 33.626-1.847 33.447-2.075 32.114-3.784 30.192-3.68 28.335-3.794 27.885-3.822 27.437-3.887 26.896-3.943" fill="#ffffff"/>
<path transform="matrix(1,0,0,-1,2347.8643,1917.5283)" d="M0 0C1.594-1.301 3.104-2.535 4.133-4.315 5.851-7.283 6.453-10.332 5.5-13.678 3.818-19.593-.17-23.544-5.194-26.738-7.93-28.476-10.875-29.655-13.883-30.754-17.169-31.951-24.134-32.722-27.735-32.208-28.586-29.353-28.874-26.4-28.926-23.271-27.225-23.303-25.633-22.929-24.019-22.532-21.202-21.841-18.604-20.685-16.068-19.353-12.974-17.729-10.218-15.656-7.907-13.015-7.093-12.084-6.495-11.005-6.178-9.843-5.87-8.712-6.32-7.768-7.426-7.168-9.42-6.087-11.476-6.417-13.546-6.804-18.623-7.752-23.187-9.917-27.354-12.888-28.799-13.919-29.569-15.631-30.087-17.32-31.159-20.818-30.942-24.351-30.47-27.958-29.961-31.844-28.531-35.456-27.718-39.231-26.778-43.579-26.04-48.001-27.118-52.448-27.389-53.565-27.729-54.742-28.666-55.623-31.154-55.388-33.495-54.537-36.01-53.879-35.359-51.377-35.566-49-35.957-46.562-36.412-43.709-37.566-41.221-39.066-38.854-40.479-36.627-42.412-34.761-43.54-32.328-45.086-28.993-46.295-25.611-46.685-21.887-47.287-16.146-44.448-11.971-40.848-8.155-37.443-4.547-33.3-1.965-28.782 .122-22.444 3.048-15.834 3.939-8.989 3.228-5.801 2.896-2.832 1.685 0 0" fill="#ffffff"/>
<path transform="matrix(1,0,0,-1,2334.3507,1982.8584)" d="M0 0C-6.527 .077-12.887 .66-19.224 1.792-22.741 2.419-26.195 3.244-29.661 4.066-34.694 5.26-39.24 7.499-43.335 10.602-46.793 13.222-49.581 16.443-50.611 20.799-51.252 23.51-51.081 26.273-50.317 28.959-48.964 33.723-45.52 36.629-41.393 38.933-39.383 40.055-37.271 40.842-34.859 41.357-34.591 38.828-33.884 36.46-33.081 33.995-35.194 33.404-37.063 32.677-38.749 31.479-42.457 28.846-45.192 23.078-40.857 18.544-38.195 15.76-34.905 14.042-31.394 12.597-28.899 11.57-26.37 10.655-23.828 9.781-20.282 8.564-16.624 7.778-12.919 7.235-3.326 5.833 6.314 5.451 15.99 5.996 20.788 6.268 25.592 6.453 30.383 6.816 33.219 7.031 36.031 7.543 38.861 7.87 43.958 8.461 49.004 9.38 54.027 10.384 58.532 11.283 63.007 12.339 67.458 13.511 72.041 14.718 76.628 15.883 80.92 17.894 85.943 20.245 90.725 23.078 94.313 27.411 97.691 31.486 99.325 36.146 98.012 41.557 97.413 44.026 96.503 46.352 95.376 48.611 95.136 49.091 95.125 49.086 95.132 49.793 95.686 50.025 95.855 49.519 96.098 49.24 98.418 46.595 100.308 43.641 101.577 40.382 102.622 37.698 102.589 34.813 102.312 31.937 102.061 29.332 101.246 26.946 99.911 24.727 98.774 22.839 97.324 21.204 95.695 19.731 93.076 17.361 90.051 15.591 86.906 14.055 84.382 12.821 81.75 11.808 79.047 10.989 76.703 10.278 74.402 9.422 72.065 8.687 68.176 7.464 64.244 6.407 60.282 5.43 57.725 4.8 55.152 4.224 52.581 3.681 47.799 2.668 42.971 1.902 38.113 1.302 34.83 .896 31.543 .546 28.252 .283 24.362-.026 20.456-.27 16.554-.288 11.073-.315 5.587-.109 0 0" fill="#ffffff"/>
<path transform="matrix(1,0,0,-1,2292.045,1975.3496)" d="M0 0C1.919-1.474 4.03-2.458 6.22-3.477 4.917-4.616 3.639-5.637 3.717-7.554 3.789-9.3 5.202-10.266 6.929-9.731 9.384-8.97 11.254-7.395 12.985-5.579 15.382-6.348 17.833-6.769 20.489-7.333 19.298-8.553 18.293-9.71 17.157-10.72 14.756-12.853 12.063-14.543 9.009-15.59 3.334-17.534-1.565-15.937-4.378-10.856-6.242-7.489-6.422-3.676-5.256 .082-4.944 1.093-4.868 2.198-4.148 3.136-2.826 2.021-1.584 .844 0 0" fill="#ffffff"/>
<path transform="matrix(1,0,0,-1,2426.1226,1932.4356)" d="M0 0C.292-1.284 1.193-2.151 1.758-3.199 3.38-6.213 3.906-9.375 3.873-12.794 3.834-16.675 1.836-18.889-1.39-20.423-2.925-21.151-4.182-20.501-5.332-19.624-6.482-18.748-6.539-17.493-6.267-16.147-5.888-14.282-4.701-12.994-3.392-11.747-1.57-10.009-.01-6.496-2.124-3.829-3.182-3.332-4.354-3.381-5.418-3.175-6.253-2.472-5.723-1.657-5.591-.995-4.923 2.354-3.717 5.496-1.647 8.26-1.234 8.81-.826 9.23 .182 8.638-1.824 5.878-1.333 2.969 0 0" fill="#ffffff"/>
<path transform="matrix(1,0,0,-1,2437.0059,1927.5713)" d="M0 0C.689 .28 1.31 .227 1.939 .131 3.684-1.154 3.783-2.954 3.374-4.815 2.826-7.312 2.724-9.848 2.468-12.371 2.389-13.145 2.282-13.761 1.13-13.695 .715-12.083 .124-10.492-.772-9.016-2.347-6.419-4.208-4.049-6.451-2.024-9.403 .641-9.44 3.861-7.618 6.729-6.902 7.854-5.706 8.429-4.279 8.289-3.3 8.192-2.702 7.637-2.336 6.767-1.964 5.875-2.519 5.187-3.048 4.735-3.961 3.955-4.353 2.97-4.581 1.895-4.915 .311-2.909-1.061-1.136-.486-.773-.369-.432-.185 0 0" fill="#ffffff"/>
<path transform="matrix(1,0,0,-1,2311.4107,1988.5498)" d="M0 0C1.161 1.795 2.291 3.516 3.511 5.373 6.511 4.857 9.533 4.416 12.837 4.154 10.92 1.987 9.204 .07 7.871-2.137 6.929-3.696 5.82-5.041 4.23-6.019 2.886-6.846 1.567-7.092 .032-6.544-1.688-4.437-.917-2.257 0 0" fill="#ffffff"/>
<path transform="matrix(1,0,0,-1,2390.9556,1981.8848)" d="M0 0C-.208 .401-.39 .729-.631 1.162 5.173 2.357 10.82 3.848 16.558 5.654 14.377 1.706 11.696-1.418 7.485-2.937 4.891-3.873 2.034-2.793 0 0" fill="#ffffff"/>
<path transform="matrix(1,0,0,-1,2295.8472,1962.6318)" d="M0 0C3.464 2.169 8.494 2.053 11.351-1.189 12.16-2.109 12.086-4.61 11.23-5.933 11.005-6.278 10.768-6.617 10.565-6.918 6.351-5.564 2.593-3.429-.708-.521-.637-.1-.309-.132 0 0" fill="#ffffff"/>
<path transform="matrix(1,0,0,-1,2405.1607,1943.4776)" d="M0 0C-1.145-1.664-2.419-3.058-4.363-3.659-5.225-3.928-6.021-3.946-6.689-3.271-7.363-2.594-7.514-1.799-7.221-.865-6.425 1.672-4.819 3.47-2.434 4.604-1.69 4.959-.937 4.781-.282 4.783 1.74 3.257 .794 1.661 0 0" fill="#ffffff"/>
<path transform="matrix(1,0,0,-1,2407.9888,1960.456)" d="M0 0C.693 .28 1.091 .096 1.337-.944 1.652-2.281 2.292-3.587 1.92-5.166 .737-5.246-.355-6.043-1.877-5.985-1.343-3.935-.279-2.123 0 0" fill="#ffffff"/>
<path transform="matrix(1,0,0,-1,2359.3848,1883.168)" d="M0 0H-.001-.003C-14.716-1.619-28.826-4.81-41.938-9.483-54.71-14.034-66.032-19.805-75.586-26.63-85.378-33.625-92.866-41.412-97.845-49.774-100.459-54.167-102.349-58.696-103.465-63.241-104.632-67.999-104.959-72.812-104.438-77.545-103.917-82.28-102.55-86.906-100.376-91.296-98.3-95.488-95.468-99.499-91.961-103.217-85.282-110.296-76.278-116.268-65.2-120.966-54.388-125.55-42.083-128.719-28.627-130.383-14.813-132.092-.345-132.138 14.364-130.518H14.365C29.079-128.897 43.188-125.707 56.303-121.034 69.075-116.482 80.395-110.714 89.951-103.887 99.741-96.893 107.229-89.106 112.208-80.742 114.824-76.352 116.714-71.82 117.828-67.277 118.995-62.519 119.323-57.705 118.802-52.971 118.281-48.238 116.915-43.612 114.74-39.221 112.663-35.029 109.833-31.019 106.325-27.301 99.646-20.222 90.641-14.25 79.565-9.553 68.753-4.967 56.447-1.8 42.992-.134 29.177 1.574 14.71 1.619 0 0M.68-6.186C58.908 .224 109.024-21.027 112.615-53.652 116.206-86.278 71.914-117.922 13.684-124.33-44.544-130.741-94.66-109.489-98.251-76.865-101.843-44.24-57.55-12.597 .68-6.186" fill="#ffffff"/>
<path transform="matrix(1,0,0,-1,1730.8381,1879.8135)" stroke-width=".2" stroke-linecap="butt" stroke-miterlimit="10" stroke-linejoin="miter" fill="none" stroke="#000000" d="M0 0C.229 .926 .03 1.692-.536 1.832-.744 .752-.584 .295 0 0ZM489.181-1039.281C490.108-1038.328 490.345-1037.566 488.798-1037.653 488.55-1038.592 488.655-1039.002 489.181-1039.281ZM-87.53-725.194C-88.073-725.637-88.212-725.886-88.166-726.093-88.066-726.521-87.867-726.931-87.283-727.09-86.918-726.213-86.979-725.599-87.53-725.194ZM433.262-15.034C434.199-14.068 434.429-13.296 432.869-13.391 432.625-14.339 432.729-14.752 433.262-15.034ZM-82.217-698.097C-82.799-698.531-82.961-698.783-82.92-698.994-82.829-699.439-82.633-699.862-82.031-700.054-81.62-699.175-81.663-698.536-82.217-698.097ZM-102.253-651.955C-102.188-652.305-102.022-652.635-101.501-652.847-100.695-652.195-100.718-651.69-101.608-651.311-102.118-651.596-102.284-651.795-102.253-651.955ZM463.386-1303.362C463.274-1302.501 462.916-1302.049 462.292-1301.991 462.398-1302.847 462.77-1303.31 463.386-1303.362ZM572.948-607.294C572.947-608.028 573.15-608.299 573.69-608.443 573.735-607.823 573.446-607.325 572.948-607.294ZM-1.326-60.778C-1.136-59.98-1.304-59.456-1.871-59.196-2.073-59.991-1.879-60.521-1.326-60.778ZM415.735 271.452C415.885 270.534 416.311 270.063 416.969 270.041 416.803 270.96 416.408 271.43 415.735 271.452ZM415.105 276.085C414.919 275.713 415.499 275.119 415.802 275.18 415.834 275.647 415.562 276.053 415.105 276.085ZM221.795 627.91C221.03 627.36 220.776 626.819 221.051 626.162 221.821 626.669 222.063 627.294 221.795 627.91ZM434.031-9.993C434.449-8.608 434.394-7.535 433.901-6.825 433.494-8.227 433.527-9.266 434.031-9.993ZM485.011-1067.776C485.347-1066.373 485.251-1065.499 484.738-1064.85 483.74-1066.204 483.101-1067.341 485.011-1067.776ZM286.553 822.671C286.925 824.082 286.821 825.169 286.245 825.912 285.877 824.494 285.978 823.419 286.553 822.671ZM481.201-183.624C481.178-185.748 480.829-187.559 483.097-187.708 482.691-185.788 482.058-184.422 481.201-183.624ZM51.777 208.997C51.053 206.604 50.885 204.534 51.181 202.876 52.511 205.226 53.247 207.176 51.777 208.997ZM496.06-989.932C498.573-986.929 499.665-983.943 499.225-980.606 499.109-979.719 498.254-978.928 497.115-978.427 496.166-982.59 495.839-986.418 496.06-989.932ZM22.747-44.788C22.963-42.121 24.138-39.411 21.63-36.897 18.107-37.945 15.009-38.632 12.352-40.111 9.98-41.432 7.792-43.387 6.073-45.506 4.099-47.938 3.24-50.909 5.096-54.324 10.599-55.655 16.072-56.586 21.916-55.363 22.314-51.348 22.484-48.064 22.747-44.788ZM182.17 620.66C180.766 617.99 179.683 615.152 178.996 611.991 181.966 611.108 184.397 610.208 186.823 610.224 192.172 610.259 197.321 614.245 198.658 619.233 200.002 624.241 197.665 627.75 193.638 630.554 192.365 631.44 191.517 632.939 189.958 633.927 187.005 629.355 184.484 625.062 182.17 620.66ZM208.133 602.204C211.186 605.637 219.353 620.89 220.576 625.437 220.643 625.685 220.515 625.984 219.84 626.554 216.459 626.48 213.705 626.187 210.979 625.733 204.644 624.68 201.609 620.386 200.195 614.549 199.494 611.664 200.404 609.001 201.619 606.52 202.532 604.659 203.32 602.326 206.757 602.1 207.646 601.95 207.962 602.012 208.133 602.204ZM19.64-81.287C14.198-81.49 9.486-81.521 5.563-81.547 2.564-83.774 2.172-86.383 1.67-88.78 .752-93.166 3.675-96.837 8.491-97.508 12.304-98.038 16.332-97.02 20.013-98.382 20.186-92.141 20.278-86.628 19.64-81.287ZM436.676 136.426C439.556 136.759 440.415 138.643 441.322 140.323 442.244 142.034 442.851 143.913 443.687 145.677 444.91 148.25 446.481 150.508 449.376 151.477 450.597 151.885 452.297 151.672 452.445 153.273 447.829 154.58 443.367 156.254 438.756 157.032 434.159 157.808 429.413 157.687 424.688 157.361 428.469 149.945 432.294 143.128 436.676 136.426ZM29.539 64.042C26.167 62.844 23.445 61.371 20.56 60.903 14.863 59.977 9.077 59.576 3.321 59.041 2.558 58.97 1.75 59.387 .664 58.918 .39 55.381 .414 52.505 1.193 49.82 2.772 50.005 3.598 49.963 4.421 49.996 12.682 50.344 20.866 50.148 28.595 47.307 29.113 53.421 29.614 58.822 29.539 64.042ZM-27.243-372.339C-26.041-372.496-25.12-372.94-24.604-372.655-20.968-370.631-17.526-368.233-13.799-366.413-11.198-365.141-10.511-362.89-9.638-359.911-9.526-355.279-9.33-351.372-9.751-347.434-11.642-346.799-13.007-345.972-14.298-347.065-17.069-349.41-20.351-349.856-23.78-350.106-25.145-350.206-26.473-350.779-27.827-351.886-27.791-359.187-27.75-365.736-27.243-372.339ZM567.556-496.808C563.122-499.26 559.121-501.3 555.393-503.754 549.627-507.552 548.301-513.891 551.654-519.979 552.663-521.808 553.988-523.036 556.183-523.302 559.811-523.742 563.441-524.278 566.358-526.27 567.01-515.896 567.561-506.239 567.556-496.808ZM462.56-1301.597C462.916-1302.049 463.274-1302.501 463.511-1303.866 464.231-1306.455 464.376-1308.765 467.335-1308.827 467.955-1308.147 468.889-1307.439 469.398-1306.503 470.608-1304.277 471.872-1302.028 472.656-1299.639 474.762-1293.22 476.627-1286.721 478.245-1279.724 477.267-1278.354 476.805-1277.209 475.962-1276.733 473.474-1275.335 470.735-1274.993 467.508-1275.651 466.839-1277.236 466.177-1279.034 465.336-1280.744 464.445-1282.556 463.179-1284.004 460.906-1284.662 461.454-1290.734 462.007-1296.167 462.56-1301.597ZM57.037 278.149C50.781 278.017 45.289 277.977 39.8 278.099 37.279 278.155 34.88 277.995 32.702 275.888 32.211 271.382 31.751 267.519 31.988 263.818 36.534 263.569 40.376 263.082 44.23 262.765 48.609 262.403 53 262.195 57.406 262.599 57.551 268.287 57.677 273.296 57.037 278.149ZM25.333 203.547C25.89 197.105 29.287 194.104 35.087 193.455 39.236 192.99 43.402 192.655 47.717 192.825 48.823 196.414 49.77 199.437 50.718 202.463 50.885 204.534 51.053 206.604 51.817 209.483 52.443 210.938 52.471 211.586 51.76 212.028 46.55 211.854 42.077 211.904 37.605 211.916 33.543 211.928 29.832 211.163 27.339 207.443 26.962 206.883 25.942 206.754 25.156 205.996 25 204.995 24.905 204.425 25.333 203.547ZM573.353-608.568C573.15-608.299 572.947-608.028 572.835-606.571 572.196-599.819 571.466-594.253 570.087-588.911 565.076-588.568 561.013-586.234 556.353-587.265 554.293-587.722 552.315-586.521 551.582-584.605 550.232-581.067 547.006-579.927 544.217-578.213 544.059-578.116 543.137-579.259 542.693-580.544 544.825-592.349 546.836-603.437 549.447-614.54 551.358-614.257 552.902-614.303 553.946-613.604 558.645-610.46 563.966-610.031 569.316-609.886 570.477-609.854 571.672-610.996 572.964-611.097 573.17-609.922 573.261-609.244 573.353-608.568ZM-83.5-701.61C-89.236-700.991-94.208-700.432-99.183-699.906-104.411-699.353-109.644-698.835-115.438-698.527-119.48-705.88-122.997-712.99-123.769-720.997-122.552-721.078-121.968-720.926-121.452-721.053-110.698-723.698-100.087-723.723-89.667-719.483-88.663-719.076-87.529-718.993-85.93-718.374-83.642-712.696-82.192-707.354-83.5-701.61ZM518.129-979.166C518.97-969.235 519.767-959.301 520.206-949.778 516.75-953.837 513.454-957.329 510.641-961.176 507.79-965.072 504.985-968.878 500.889-971.613 499.575-972.492 498.675-973.991 497.643-975.686 497.714-976.805 497.726-977.448 497.738-978.092 498.254-978.928 499.109-979.719 499.225-980.606 499.665-983.943 498.573-986.929 496.035-990.606 494.834-996.709 494.206-1001.818 493.856-1007.297 494.186-1008.216 494.208-1008.774 494.307-1009.32 494.354-1009.578 494.552-1009.809 494.68-1010.053 496.333-1007.516 498.076-1005.031 499.621-1002.431 502.858-996.979 507.872-993.461 513.002-990.12 513.994-989.476 515.593-989.76 517.043-988.937 517.496-985.227 517.872-982.2 518.129-979.166ZM286.715 826.256C286.821 825.169 286.925 824.082 286.548 821.911 285.925 813.167 285.784 805.508 286.288 798.085 290.437 797.922 293.94 797.524 298.088 797.052 301.365 799.138 305.219 801.872 310.376 801.791 310.765 806.018 311.158 809.556 311.303 813.104 311.501 817.982 311.512 822.869 311.152 827.298 305.205 824.199 300.604 825.729 296.389 829.718 293.832 832.138 291.597 835.112 287.629 835.052 287.242 831.676 286.979 828.966 286.715 826.256ZM467.677 6.968C462.827 6.251 458.727 5.52 454.596 5.098 448.45 4.469 442.431 5.643 436.328 6.116 435.6 1.487 434.969-2.488 434.339-6.462 434.394-7.535 434.449-8.608 433.99-10.42 433.388-11.726 433.303-12.29 433.218-12.855 434.429-13.296 434.199-14.068 433.237-15.562 432.732-16.923 432.68-17.626 432.966-18.866 434.186-19.877 435.102-20.808 435.945-20.746 444.749-20.091 453.641-20.137 462.359-17.061 464.455-8.578 466.433-.744 467.677 6.968ZM-131.095-761.824C-130.872-763.744-130.119-765.657-129.324-767.448-127.339-771.925-123.888-774.637-118.942-775.01-114.042-775.38-109.417-774.562-105.61-771.047-99.446-765.354-94.968-758.712-94.326-750.223-96.411-751.881-97.756-753.696-99.426-755.135-100.548-756.1-102.131-756.526-104.069-757.467-105.378-753.985-106.532-751.149-107.512-748.254-108.687-744.783-109.569-741.21-110.845-737.782-112.147-734.286-114.672-733.641-117.385-735.915-118.461-736.817-119.579-737.769-120.351-738.917-122.454-742.045-125.553-741.736-129.231-742.146-132.318-748.919-131.847-755.384-131.095-761.824ZM27.667 32.598C27.987 37.262 28.276 41.929 28.578 46.596 20.866 50.148 12.682 50.344 4.421 49.996 3.598 49.963 2.772 50.005 .669 49.345-.729 41.146-.88 33.618-.915 26.091-.918 25.416-.158 24.738 .671 23.667 2.095 22.302 3 21.2 4.113 20.384 10.442 15.752 17.094 11.889 25.797 12.431 26.737 19.362 27.213 25.979 27.667 32.598ZM-128.85-738.07C-129.125-739.723-128.886-740.667-128.645-741.613-125.553-741.736-122.454-742.045-120.351-738.917-119.579-737.769-118.461-736.817-117.385-735.915-114.672-733.641-112.147-734.286-110.845-737.782-109.569-741.21-108.687-744.783-107.512-748.254-106.532-751.149-105.378-753.985-104.069-757.467-102.131-756.526-100.548-756.1-99.426-755.135-97.756-753.696-96.411-751.881-94.136-749.623-91.466-741.797-89.589-734.572-87.71-727.35-87.867-726.931-88.066-726.521-88.166-726.093-88.212-725.886-88.073-725.637-87.476-724.572-86.773-722.078-86.613-720.418-86.453-718.759-87.529-718.993-88.663-719.076-89.667-719.483-100.087-723.723-110.698-723.698-121.452-721.053-121.968-720.926-122.552-721.078-123.925-721.6-126.033-726.591-127.321-731.082-128.611-735.574-128.519-736.17-128.426-736.769-128.85-738.07ZM514.407-1031.035C515.329-1021.08 516.519-1011.151 517.298-1001.187 517.594-997.363 517.065-993.476 516.911-989.616 515.593-989.76 513.994-989.476 513.002-990.12 507.872-993.461 502.858-996.979 499.621-1002.431 498.076-1005.031 496.333-1007.516 494.68-1010.053 494.552-1009.809 494.354-1009.578 494.307-1009.32 494.208-1008.774 494.186-1008.216 493.336-1007.737 491.639-1014.62 490.643-1021.415 489.899-1028.239 489.669-1030.34 488.093-1032.405 489.932-1034.576 492.8-1033.516 494.117-1036.109 496.255-1036.387 497.691-1036.573 498.969-1038.102 500.281-1039.079 504.176-1041.979 508.348-1043.927 513.627-1042.434 514.041-1038.22 514.076-1034.612 514.407-1031.035ZM-5.435-183.995C3.078-182.372 10.942-180.884 18.833-178.602 18.937-163.62 19.043-149.428 19.068-135.235 19.073-132.468 18.763-129.699 17.956-127.165 14.13-127.396 10.947-127.396 7.306-127.396 8.153-128.313 8.494-128.733 8.89-129.098 9.302-129.475 9.845-129.729 10.194-130.153 13.7-134.392 14.03-138.163 10.259-142.051 8.202-144.171 7.995-146.29 7.773-148.791 7.578-151.01 6.187-152.4 3.959-152.575 .887-152.816-2.201-152.852-5.353-153.718-5.644-164.353-5.864-174.239-5.435-183.995ZM513.384-1043.056C508.348-1043.927 504.176-1041.979 500.281-1039.079 498.969-1038.102 497.691-1036.573 496.255-1036.387 494.117-1036.109 492.8-1033.516 489.891-1034.998 489.366-1036.019 489.279-1036.574 489.149-1037.124 490.345-1037.566 490.108-1038.328 489.149-1039.957 487.517-1048.716 486.335-1056.671 485.155-1064.624 485.251-1065.499 485.347-1066.373 485.151-1068.303 485.153-1070.021 485.443-1070.682 486.304-1071.293 489.865-1074.103 493.194-1075.7 497.483-1074.504 498.795-1074.138 500.251-1074.203 501.64-1074.215 506.336-1074.251 507.493-1075.403 507.869-1080.022 508.072-1082.499 508.448-1084.963 509.033-1086.796 510.677-1071.792 512.029-1057.424 513.384-1043.056ZM416.737 269.593C416.311 270.063 415.885 270.534 415.611 271.981 415.677 273.679 415.587 274.397 415.499 275.119 415.499 275.119 414.919 275.713 415.003 276.765 414.452 281.857 413.819 285.897 412.573 289.943 406.31 292.619 403.589 297.065 403.837 303.324 403.86 303.88 403.836 304.445 403.764 304.995 403.482 307.149 402.348 308.571 400.174 309.067 395.858 310.053 391.544 311.038 387.092 311.264 386.568 293.497 388.44 276.727 392.81 260.255 397.819 260.01 401.844 260.906 405.815 262.66 409.374 264.233 413.144 265.325 416.87 267.122 416.859 268.275 416.799 268.934 416.737 269.593ZM448.117-169.917C449.651-176.921 451.467-183.863 453.535-190.352 462.784-184.099 471.877-184.559 481.062-189.002 481.635-189.279 481.906-190.175 482.534-190.399 482.793-189.43 482.832-188.844 482.871-188.257 480.829-187.559 481.178-185.748 481.044-182.961 478.486-171.349 475.862-160.97 472.557-150.466 463.69-149.53 455.506-148.694 447.316-147.923 445.515-147.753 445.355-149.539 444.643-151.258 445.844-157.951 446.817-163.969 448.117-169.917ZM498.892-926.374C498.567-934.839 498.348-943.308 497.96-951.767 497.638-958.808 497.1-965.838 496.75-972.877 496.711-973.639 497.29-974.43 497.585-975.208 498.675-973.991 499.575-972.492 500.889-971.613 504.985-968.878 507.79-965.072 510.641-961.176 513.454-957.329 516.75-953.837 520.73-949.373 524.493-931.817 527.297-915.065 532.364-898.8 532.595-898.052 532.337-897.151 531.687-896.293 529.72-897.226 528.373-898.189 527.603-898.739 523.212-898.363 519.373-897.733 515.546-897.799 512.264-897.854 509.63-899.719 508.573-902.971 507.61-905.941 508.897-908.426 511.016-910.544 513.195-912.723 515.464-914.826 517.455-917.167 519.248-919.275 519.054-921.911 517.35-924.09 515.501-926.454 513.447-926.879 510.709-925.747 507.134-924.269 504.715-920.556 499.873-920.899 499.165-923.017 498.955-924.692 498.892-926.374ZM44.23 262.765C40.376 263.082 36.534 263.569 31.794 263.117 29.554 252.51 28.153 242.772 26.875 233.021 25.96 226.045 25.156 219.051 24.415 212.053 24.214 210.162 23.631 208.109 25.218 206.427 25.942 206.754 26.962 206.883 27.339 207.443 29.832 211.163 33.543 211.928 37.605 211.916 42.077 211.904 46.55 211.854 52.254 212.479 54.167 217.251 55.158 221.342 55.462 225.483 56.329 237.35 56.921 249.237 57.606 261.119 57.621 261.381 57.463 261.652 57.385 261.921 53 262.195 48.609 262.403 44.23 262.765ZM500.44-920.459C504.715-920.556 507.134-924.269 510.709-925.747 513.447-926.879 515.501-926.454 517.35-924.09 519.054-921.911 519.248-919.275 517.455-917.167 515.464-914.826 513.195-912.723 511.016-910.544 508.897-908.426 507.61-905.941 508.573-902.971 509.63-899.719 512.264-897.854 515.546-897.799 519.373-897.733 523.212-898.363 527.603-898.739 528.373-898.189 529.72-897.226 531.916-895.751 536.049-886.692 539.329-878.146 542.12-869.341 541.085-869.083 540.475-868.92 540.003-869.106 533.837-871.526 528.721-869.959 524.322-865.201 523.018-863.794 521.517-862.541 519.988-861.375 517.539-859.51 514.847-858.18 511.379-858.928 504.41-879.271 501.259-899.661 500.44-920.459ZM-101.177-651.205C-100.718-651.69-100.695-652.195-101.729-653.469-106.94-668.792-109.18-684.037-114.875-698.301-109.644-698.835-104.411-699.353-99.183-699.906-94.208-700.432-89.236-700.991-83.452-701.26-82.64-700.982-82.48-700.294-82.48-700.294-82.633-699.862-82.829-699.439-82.92-698.994-82.961-698.783-82.799-698.531-82.151-697.428-79.143-685.126-78.212-673.423-74.954-662.122-73.272-656.287-72.589-650.164-71.847-644.62-75.246-646.402-78.251-647.739-81.24-649.066-81.446-650.7-81.477-652.103-81.82-653.423-82.723-656.903-84.936-658.56-88.457-658.327-89.809-658.238-91.189-657.863-92.461-657.371-95.877-656.046-98.885-654.096-101.145-651.133-101.164-651.154-101.177-651.205-101.177-651.205ZM-3.124-79.167C-3.549-89.256-3.793-99.359-4.509-109.427-5.167-118.662-4.356-127.914-5.594-137.172-6.28-142.3-7.411-147.76-5.281-152.974-2.201-152.852 .887-152.816 3.959-152.575 6.187-152.4 7.578-151.01 7.773-148.791 7.995-146.29 8.202-144.171 10.259-142.051 14.03-138.163 13.7-134.392 10.194-130.153 9.845-129.729 9.302-129.475 8.89-129.098 8.494-128.733 8.153-128.313 7.306-127.396 10.947-127.396 14.13-127.396 18.392-126.625 19.765-120.548 20.184-115.248 20.309-109.942 20.394-106.335 20.07-102.722 19.929-99.111 16.332-97.02 12.304-98.038 8.491-97.508 3.675-96.837 .752-93.166 1.67-88.78 2.172-86.383 2.564-83.774 5.563-81.547 9.486-81.521 14.198-81.49 20.107-80.772 21.391-73.479 21.48-66.871 20.977-60.527 19.106-61.186 17.849-61.771 16.539-61.937 12.397-62.457 8.24-62.868 4.079-63.221 2.14-63.387 .183-63.321-2.19-64.106-2.78-69.624-2.923-74.396-3.124-79.167ZM4.113 20.384C3 21.2 2.095 22.302 .61 22.947 .028 15.902-.07 9.179-.167 2.457 .03 1.692 .229 .926 .006-.761-.767-20.764-1.122-39.848-1.474-58.93-1.304-59.456-1.136-59.98-1.337-61.163-1.729-62.334-1.749-62.847-1.767-63.36 .183-63.321 2.14-63.387 4.079-63.221 8.24-62.868 12.397-62.457 16.539-61.937 17.849-61.771 19.106-61.186 20.992-60.007 21.642-58.18 21.686-57.14 21.729-56.099 16.072-56.586 10.599-55.655 5.096-54.324 3.24-50.909 4.099-47.938 6.073-45.506 7.792-43.387 9.98-41.432 12.352-40.111 15.009-38.632 18.107-37.945 21.707-36.186 22.902-28.228 23.451-20.998 23.893-13.763 24.42-5.139 24.852 3.489 25.325 12.114 17.094 11.889 10.442 15.752 4.113 20.384ZM190.476 634.158C191.517 632.939 192.365 631.44 193.638 630.554 197.665 627.75 200.002 624.241 198.658 619.233 197.321 614.245 192.172 610.259 186.823 610.224 184.397 610.208 181.966 611.108 178.437 611.774 175.802 608.19 174.267 604.427 173.404 600.764 177.034 599.361 178.601 596.97 179.03 593.663 179.529 589.806 181.964 587.643 185.759 587.56 189.631 587.475 192.694 586.056 195.442 583.442 196.166 582.754 197.453 582.658 198.726 582.79 201.37 587.887 203.748 592.493 206.179 597.071 207.139 598.881 207.586 600.62 206.121 602.372 203.32 602.326 202.532 604.659 201.619 606.52 200.404 609.001 199.494 611.664 200.195 614.549 201.609 620.386 204.644 624.68 210.979 625.733 213.705 626.187 216.459 626.48 219.891 626.464 220.583 626.084 220.52 626.277 220.52 626.277 220.776 626.819 221.03 627.36 222.086 628.398 227.262 637.63 231.633 646.366 236.022 655.096 236.78 656.605 237.626 658.08 236.235 659.517 232.876 659.141 229.996 659.409 227.543 657.696 220.295 652.633 212.411 652.533 203.885 654.112 199.19 647.152 194.833 640.654 190.476 634.158ZM296.389 829.718C300.604 825.729 305.205 824.199 311.703 827.705 313.185 831.899 313.594 835.245 314.155 838.564 317.905 860.814 322.981 882.763 329.186 904.453 329.882 906.886 330.558 909.347 330.959 911.841 332.197 919.543 331.772 926.991 327.051 933.646 326.725 934.106 326.466 934.615 326.128 935.067 322.719 939.655 322.515 944.192 325.556 949.214 327.108 951.774 328.391 954.961 328.43 957.881 328.51 964.138 326.772 970.143 323.437 975.556 320.754 979.912 316.496 981.141 311.761 978.988 304.267 975.585 300.458 967.215 302.856 959.281 303.344 957.667 303.95 956.059 304.728 954.566 307.565 949.132 308.161 943.312 308.045 937.308 307.882 928.8 306.555 920.475 304.539 912.229 300.119 894.161 295.634 876.109 291.422 857.995 289.718 850.671 287.9 843.32 287.754 835.718 291.597 835.112 293.832 832.138 296.389 829.718ZM447.316-147.923C455.506-148.694 463.69-149.53 472.734-149.778 471.719-138.981 469.572-128.791 468.039-118.509 466.05-105.146 464.411-91.726 462.89-78.301 462.005-70.479 461.443-62.609 461.104-54.745 460.813-48.004 460.894-41.235 461.094-34.489 461.26-28.889 461.842-23.303 462.24-17.709 453.641-20.137 444.749-20.091 435.945-20.746 435.102-20.808 434.186-19.877 432.483-19.357 430.91-25.404 430.114-31.496 429.442-37.602 429.26-39.261 429.424-40.962 429.481-42.644 429.566-45.171 429.86-47.702 429.784-50.223 429.449-61.263 431.42-72.006 433.823-82.698 434.56-85.984 435.543-89.239 435.983-92.566 438.371-110.633 440.601-128.723 442.973-146.793 443.143-148.094 444.016-149.302 444.561-150.553 445.355-149.539 445.515-147.753 447.316-147.923ZM35.087 193.455C29.287 194.104 25.89 197.105 24.703 203.263 23.323 202.772 22.964 202.281 22.885 201.747 18.889 174.98 12.26 148.774 6.087 122.471 4.221 114.519 1.768 106.645 .671 98.588-.926 86.862-.904 74.98-.721 63.136-.7 61.71-.54 60.316 .965 59.578 1.75 59.387 2.558 58.97 3.321 59.041 9.077 59.576 14.863 59.977 20.56 60.903 23.445 61.371 26.167 62.844 29.9 64.723 30.821 66.426 30.711 67.277 30.798 68.109 32.998 89.022 34.918 109.972 37.541 130.832 39.29 144.748 42.054 158.536 44.346 172.384 45.44 179.007 46.49 185.637 47.561 192.264 43.402 192.655 39.236 192.99 35.087 193.455ZM-23.78-350.106C-20.351-349.856-17.069-349.41-14.298-347.065-13.007-345.972-11.642-346.799-9.4-346.971-6.999-339.848-3.827-333.882-.632-327.924 5.77-315.983 11.364-303.722 14.177-290.365 16.433-279.644 18.956-268.989 18.708-257.885 18.585-252.328 19.019-246.722 19.652-241.189 20.685-232.212 21.07-223.274 20.24-214.253 19.601-207.307 18.708-200.441 19.875-193.308 20.594-188.91 21.452-183.835 18.808-179.393 10.942-180.884 3.078-182.372-5.742-184.748-7.009-194.622-7.205-203.613-7.667-212.593-8.288-224.655-8.669-236.757-9.964-248.753-11.805-265.78-15.027-282.607-19.453-299.176-21.265-305.956-23.398-312.659-24.951-319.497-27.311-329.891-28.978-340.397-27.821-351.136-26.473-350.779-25.145-350.206-23.78-350.106ZM507.869-1080.022C507.493-1075.403 506.336-1074.251 501.64-1074.215 500.251-1074.203 498.795-1074.138 497.483-1074.504 493.194-1075.7 489.865-1074.103 485.632-1071.42 483.753-1073.746 482.882-1075.856 482.518-1078.053 480.492-1090.257 478.559-1102.477 476.656-1114.701 474.883-1126.085 473.183-1137.481 471.459-1148.874 470.953-1152.213 470.074-1155.554 470.052-1158.901 469.971-1171.605 467.496-1184.062 466.216-1196.631 464.507-1213.409 462.713-1230.172 461.546-1246.999 461.217-1251.764 460.652-1256.521 460.515-1261.29 460.297-1268.867 459.386-1276.471 460.912-1284.02 463.179-1284.004 464.445-1282.556 465.336-1280.744 466.177-1279.034 466.839-1277.236 467.508-1275.651 470.735-1274.993 473.474-1275.335 475.962-1276.733 476.805-1277.209 477.267-1278.354 478.763-1279.341 481.814-1269.323 484.237-1259.201 486.148-1248.983 489.301-1232.126 492.629-1215.275 494.943-1198.296 497.259-1181.302 500.748-1164.505 502.408-1147.391 504.252-1128.368 507.266-1109.459 509.68-1090.489 509.803-1089.526 509.076-1088.453 508.743-1087.432 508.448-1084.963 508.072-1082.499 507.869-1080.022ZM454.596 5.098C458.727 5.52 462.827 6.251 468.221 7.234 473.858 20.715 478.395 33.75 482.506 46.916 485.102 55.231 487.525 63.657 489.19 72.195 491.368 83.382 490.874 94.543 487.163 105.544 483.724 115.741 479.828 125.646 473.388 134.369 468.369 141.168 463.627 148.2 458.228 154.683 450.441 164.034 443.569 173.977 437.709 184.59 432.372 194.252 428.668 204.542 426.835 215.518 424.24 231.052 421.367 246.54 418.532 262.034 418.243 263.617 417.406 265.101 416.823 266.628 413.144 265.325 409.374 264.233 405.815 262.66 401.844 260.906 397.819 260.01 392.706 259.532 392.121 257.01 392.206 255.301 392.565 253.652 396.116 237.391 400.154 221.258 405.113 205.355 409.404 191.594 414.365 178.103 420.448 165.039 421.605 162.552 423.29 160.312 424.732 157.959 429.413 157.687 434.159 157.808 438.756 157.032 443.367 156.254 447.829 154.58 452.445 153.273 452.297 151.672 450.597 151.885 449.376 151.477 446.481 150.508 444.91 148.25 443.687 145.677 442.851 143.913 442.244 142.034 441.322 140.323 440.415 138.643 439.556 136.759 436.643 135.822 439.093 131.044 442.001 126.878 445.202 122.95 451.87 114.772 457.245 105.975 459.83 95.6 462.069 86.616 462.536 77.665 458.986 69.004 455.142 59.622 450.792 50.448 446.643 41.191 444.685 36.821 442.475 32.551 440.741 28.093 438.083 21.262 436.245 14.206 436.426 6.772 442.431 5.643 448.45 4.469 454.596 5.098ZM519.988-861.375C521.517-862.541 523.018-863.794 524.322-865.201 528.721-869.959 533.837-871.526 540.003-869.106 540.475-868.92 541.085-869.083 542.641-869.023 544.267-867.098 544.802-865.203 545.505-863.372 555.705-836.804 565.052-809.955 573.218-782.679 578.395-765.378 581.992-747.763 585.011-730.015 586.094-723.663 585.87-717.092 586.917-710.73 589.108-697.396 587.398-684.35 584.886-671.309 582.596-659.431 580.15-647.584 577.998-635.684 576.697-628.493 575.878-621.216 574.696-614.003 574.552-613.124 573.488-612.394 572.851-611.597 571.672-610.996 570.477-609.854 569.316-609.886 563.966-610.031 558.645-610.46 553.946-613.604 552.902-614.303 551.358-614.257 549.281-615.182 551.855-628.992 556.391-641.691 562.582-653.854 567.844-664.194 569.472-675.181 566.794-686.726 564.289-697.515 560.697-707.937 555.691-717.734 549.221-730.399 544.856-743.812 541.271-757.402 538.992-766.041 538.773-775.236 537.8-784.201 537.102-790.631 536.831-797.109 536.094-803.536 535.645-807.445 534.94-811.368 533.882-815.156 531.746-822.804 528.636-829.951 523.653-836.352 518.492-842.977 513.607-849.912 511.637-858.353 514.847-858.18 517.539-859.51 519.988-861.375ZM227.543 657.696C229.996 659.409 232.876 659.141 236.865 659.661 243.706 670.312 246.517 681.057 243.758 692.642 242.088 699.654 242.246 706.687 243.143 713.654 244.372 723.203 242.488 732.166 239.264 740.979 238.008 744.412 236.359 747.708 234.829 751.039 227.484 767.032 227.299 783.839 229.592 800.786 231.383 814.024 236.799 826.302 241.726 838.517 247.513 852.858 254.776 866.624 261.754 880.459 267.861 892.569 275.318 903.894 283.51 914.699 287.065 919.39 289.111 924.258 288.586 930.326 287.813 939.279 287.511 948.275 287.038 957.255 286.696 963.767 283.767 969.144 279.699 973.994 273.563 981.313 268.44 979.116 263.815 973.138 263.304 972.477 262.931 971.695 262.568 970.933 259.069 963.592 258.448 956.29 263.287 949.275 265.31 946.348 266.253 943.25 265.888 939.754 264.738 928.741 262.124 918.211 256.963 908.261 250.175 895.169 241.565 883.319 233.07 871.362 229.482 866.315 225.486 861.429 222.745 855.936 217.969 846.355 213.791 836.457 209.784 826.521 204.246 812.79 201.512 798.398 201.705 783.602 201.885 769.716 204.994 756.204 208.274 742.782 211.884 728.006 216.129 713.394 218.154 698.242 219.507 688.121 218.546 678.584 213.38 669.683 210.427 664.591 207.283 659.606 204.226 654.574 212.411 652.533 220.295 652.633 227.543 657.696ZM-13.799-366.413C-17.526-368.233-20.968-370.631-24.604-372.655-25.12-372.94-26.041-372.496-27.576-373.096-28.57-381.984-28.166-390.234-29.089-398.331-30.592-411.541-34.185-424.326-39.135-436.697-47.944-458.71-57.023-480.613-64.633-503.093-67.892-512.719-69.328-522.217-65.193-531.95-63.016-537.071-62.878-542.497-64.23-547.773-65.694-553.496-67.297-559.266-69.646-564.666-81.128-591.076-92.067-617.677-100.004-645.412-100.535-647.268-100.761-649.211-101.127-651.113-98.885-654.096-95.877-656.046-92.461-657.371-91.189-657.863-89.809-658.238-88.457-658.327-84.936-658.56-82.723-656.903-81.82-653.423-81.477-652.103-81.446-650.7-81.24-649.066-78.251-647.739-75.246-646.402-71.294-644.308-68.796-638.728-67.638-633.732-65.607-629.123-61.18-619.071-56.352-609.195-51.601-599.29-48.431-592.682-45.021-586.187-41.883-579.563-37.357-570.011-34.845-560.143-35.458-549.324-35.956-540.585-37.032-531.948-37.921-523.27-38.232-520.237-38.667-516.938-37.825-514.124-35.977-507.939-33.516-501.919-30.991-495.964-28.904-491.037-26.337-486.314-24.033-481.479-15.61-463.794-9.782-445.311-7.319-425.848-6.647-420.546-6.481-415.178-6.168-409.835-5.872-404.778-5.247-399.688-5.543-394.66-6.172-383.989-7.282-373.347-8.278-362.699-8.346-361.978-9.113-361.323-9.555-360.636-10.511-362.89-11.198-365.141-13.799-366.413ZM39.8 278.099C45.289 277.977 50.781 278.017 57.42 278.737 58.945 281.983 59.476 284.474 59.675 286.99 60.563 298.291 61.934 309.452 67.12 319.788 69.166 323.868 70.113 328.281 70.365 332.855 70.52 335.672 70.92 338.478 71.087 341.295 71.398 346.613 73.81 350.952 77.033 355.027 79.998 358.777 83.091 362.494 85.525 366.587 93.591 380.151 101.572 393.773 109.216 407.577 114.271 416.705 118.708 426.178 123.392 435.509 132.632 453.915 143.117 471.658 151.852 490.352 159.494 506.711 168.25 522.55 176.556 538.597 183.687 552.374 190.887 566.116 198.016 579.896 198.374 580.589 198.335 581.487 198.481 582.289 197.453 582.658 196.166 582.754 195.442 583.442 192.694 586.056 189.631 587.475 185.759 587.56 181.964 587.643 179.529 589.806 179.03 593.663 178.601 596.97 177.034 599.361 172.845 600.616 170.642 598.652 169.557 596.99 168.727 595.209 162.169 581.136 155.814 566.981 150.964 552.191 149.297 547.108 147.272 542.124 145.142 537.212 137.059 518.577 128.981 499.964 118.785 482.31 110.464 467.898 103.262 452.843 95.05 438.364 80.147 412.089 64.468 386.268 47.818 361.057 45.293 357.233 43.382 353.246 41.86 348.979 36.953 335.215 35.219 321.007 36.196 306.496 36.544 301.344 35.849 296.459 34.879 291.444 33.93 286.532 31.877 281.718 32.732 276.53 34.88 277.995 37.279 278.155 39.8 278.099ZM481.062-189.002C471.877-184.559 462.784-184.099 453.437-191.066 453.322-194.198 453.602-196.156 454.055-198.07 462.022-231.671 474.765-263.702 486.404-296.087 492.224-312.282 498.745-328.226 504.95-344.281 509.222-355.329 513.753-366.283 517.7-377.444 521.556-388.349 524.828-399.458 528.341-410.483 536.166-435.037 541.489-460.066 543.091-485.858 543.62-494.374 543.301-502.806 542.071-511.187 540.594-521.244 539.49-531.295 539.344-541.478 539.17-553.638 540.44-565.7 541.294-577.793 541.343-578.498 542.13-579.149 542.572-579.826 543.137-579.259 544.059-578.116 544.217-578.213 547.006-579.927 550.232-581.067 551.582-584.605 552.315-586.521 554.293-587.722 556.353-587.265 561.013-586.234 565.076-588.568 570.399-588.193 570.751-581.95 569.89-576.664 569.582-571.346 568.85-558.689 568.4-546.018 567.786-533.353 567.68-531.156 568.102-528.784 566.255-526.987 563.441-524.278 559.811-523.742 556.183-523.302 553.988-523.036 552.663-521.808 551.654-519.979 548.301-513.891 549.627-507.552 555.393-503.754 559.121-501.3 563.122-499.26 568.08-496.352 570.299-487.715 568.677-479.937 567.377-472.187 563.638-449.87 557.223-428.184 550.835-406.548 542.925-379.756 534.085-353.239 525.7-326.588 513.677-288.367 501.679-250.142 489.731-211.897 487.883-205.977 486.433-199.933 484.625-193.997 484.261-192.801 483.109-191.848 482.321-190.782 481.906-190.175 481.635-189.279 481.062-189.002ZM310.268 801.105C311.392 790.744 312.427 780.372 313.663 770.023 316.107 749.558 319.825 729.323 325.036 709.372 329.028 694.085 332.704 678.704 337.101 663.533 340.949 650.264 345.738 637.27 349.871 624.08 354.95 607.88 361.246 592.195 368.724 576.955 377.234 559.604 388.216 543.945 400.457 529.065 406.945 521.179 414.148 514.126 422.013 507.637 426.571 503.876 430.693 499.568 434.841 495.343 440.715 489.362 444.541 482.006 446.688 474.09 448.93 465.829 448.171 457.306 446.022 448.977 443.252 438.244 438.299 428.393 433.708 418.396 432.767 416.348 431.747 414.333 430.875 412.257 429.163 408.186 428.39 404.313 431.702 400.388 433.736 397.979 434.031 394.813 433.542 391.544 432.324 383.405 430.245 375.54 427.117 367.922 419.468 349.304 413.682 330.155 412.38 309.966 411.983 303.833 413.065 297.605 412.716 290.687 406.31 292.619 403.589 297.065 403.837 303.324 403.86 303.88 403.836 304.445 403.764 304.995 403.482 307.149 402.348 308.571 400.174 309.067 395.858 310.053 391.544 311.038 387.229 312.024 386.566 325.68 388.434 339.047 392.697 351.968 394.257 356.703 397.232 360.997 399.76 365.378 402.012 369.284 404.615 372.985 406.92 376.862 409.055 380.463 409.706 384.219 407.431 388.084 405.138 391.979 404.861 396.017 406.428 400.283 408.078 404.772 409.223 409.475 411.161 413.828 414.021 420.254 417.329 426.487 420.557 432.743 423.819 439.062 426.319 445.644 427.386 452.675 429.167 464.418 426.054 475.015 419.552 484.79 415.117 491.455 409.508 497.04 403.311 501.948 392.7 510.355 381.703 518.237 369.729 524.678 364.946 527.252 361.196 531.101 358.055 535.553 350.851 545.769 345.353 556.904 340.849 568.491 335.841 581.375 331.631 594.534 328.474 608.027 326.611 615.983 324.023 623.77 322.146 631.723 316.966 653.672 312.28 675.741 306.829 697.62 302.947 713.2 298.407 728.634 293.675 743.983 288.405 761.075 284.899 778.382 286.001 797.326 290.437 797.922 293.94 797.524 298.088 797.052 301.365 799.138 305.219 801.872 310.268 801.105Z"/>
<path transform="matrix(1,0,0,-1,1730.8381,1879.8135)" d="M0 0C.229 .926 .03 1.692-.536 1.832-.744 .752-.584 .295 0 0M489.181-1039.281C490.108-1038.328 490.345-1037.566 488.798-1037.653 488.55-1038.592 488.655-1039.002 489.181-1039.281M-87.53-725.194C-88.073-725.637-88.212-725.886-88.166-726.093-88.066-726.521-87.867-726.931-87.283-727.09-86.918-726.213-86.979-725.599-87.53-725.194M433.262-15.034C434.199-14.068 434.429-13.296 432.869-13.391 432.625-14.339 432.729-14.752 433.262-15.034M-82.217-698.097C-82.799-698.531-82.961-698.783-82.92-698.994-82.829-699.439-82.633-699.862-82.031-700.054-81.62-699.175-81.663-698.536-82.217-698.097M-102.253-651.955C-102.188-652.305-102.022-652.635-101.501-652.847-100.695-652.195-100.718-651.69-101.608-651.311-102.118-651.596-102.284-651.795-102.253-651.955M463.386-1303.362C463.274-1302.501 462.916-1302.049 462.292-1301.991 462.398-1302.847 462.77-1303.31 463.386-1303.362M572.948-607.294C572.947-608.028 573.15-608.299 573.69-608.443 573.735-607.823 573.446-607.325 572.948-607.294M-1.326-60.778C-1.136-59.98-1.304-59.456-1.871-59.196-2.073-59.991-1.879-60.521-1.326-60.778M415.735 271.452C415.885 270.534 416.311 270.063 416.969 270.041 416.803 270.96 416.408 271.43 415.735 271.452M415.105 276.085C414.919 275.713 415.499 275.119 415.802 275.18 415.834 275.647 415.562 276.053 415.105 276.085M221.795 627.91C221.03 627.36 220.776 626.819 221.051 626.162 221.821 626.669 222.063 627.294 221.795 627.91M434.031-9.993C434.449-8.608 434.394-7.535 433.901-6.825 433.494-8.227 433.527-9.266 434.031-9.993M485.011-1067.776C485.347-1066.373 485.251-1065.499 484.738-1064.85 483.74-1066.204 483.101-1067.341 485.011-1067.776M286.553 822.671C286.925 824.082 286.821 825.169 286.245 825.912 285.877 824.494 285.978 823.419 286.553 822.671M481.201-183.624C481.178-185.748 480.829-187.559 483.097-187.708 482.691-185.788 482.058-184.422 481.201-183.624M51.777 208.997C51.053 206.604 50.885 204.534 51.181 202.876 52.511 205.226 53.247 207.176 51.777 208.997M496.06-989.932C498.573-986.929 499.665-983.943 499.225-980.606 499.109-979.719 498.254-978.928 497.115-978.427 496.166-982.59 495.839-986.418 496.06-989.932M22.747-44.788C22.963-42.121 24.138-39.411 21.63-36.897 18.107-37.945 15.009-38.632 12.352-40.111 9.98-41.432 7.792-43.387 6.073-45.506 4.099-47.938 3.24-50.909 5.096-54.324 10.599-55.655 16.072-56.586 21.916-55.363 22.314-51.348 22.484-48.064 22.747-44.788M182.17 620.66C180.766 617.99 179.683 615.152 178.996 611.991 181.966 611.108 184.397 610.208 186.823 610.224 192.172 610.259 197.321 614.245 198.658 619.233 200.002 624.241 197.665 627.75 193.638 630.554 192.365 631.44 191.517 632.939 189.958 633.927 187.005 629.355 184.484 625.062 182.17 620.66M208.133 602.204C211.186 605.637 219.353 620.89 220.576 625.437 220.643 625.685 220.515 625.984 219.84 626.554 216.459 626.48 213.705 626.187 210.979 625.733 204.644 624.68 201.609 620.386 200.195 614.549 199.494 611.664 200.404 609.001 201.619 606.52 202.532 604.659 203.32 602.326 206.757 602.1 207.646 601.95 207.962 602.012 208.133 602.204M19.64-81.287C14.198-81.49 9.486-81.521 5.563-81.547 2.564-83.774 2.172-86.383 1.67-88.78 .752-93.166 3.675-96.837 8.491-97.508 12.304-98.038 16.332-97.02 20.013-98.382 20.186-92.141 20.278-86.628 19.64-81.287M436.676 136.426C439.556 136.759 440.415 138.643 441.322 140.323 442.244 142.034 442.851 143.913 443.687 145.677 444.91 148.25 446.481 150.508 449.376 151.477 450.597 151.885 452.297 151.672 452.445 153.273 447.829 154.58 443.367 156.254 438.756 157.032 434.159 157.808 429.413 157.687 424.688 157.361 428.469 149.945 432.294 143.128 436.676 136.426M29.539 64.042C26.167 62.844 23.445 61.371 20.56 60.903 14.863 59.977 9.077 59.576 3.321 59.041 2.558 58.97 1.75 59.387 .664 58.918 .39 55.381 .414 52.505 1.193 49.82 2.772 50.005 3.598 49.963 4.421 49.996 12.682 50.344 20.866 50.148 28.595 47.307 29.113 53.421 29.614 58.822 29.539 64.042M-27.243-372.339C-26.041-372.496-25.12-372.94-24.604-372.655-20.968-370.631-17.526-368.233-13.799-366.413-11.198-365.141-10.511-362.89-9.638-359.911-9.526-355.279-9.33-351.372-9.751-347.434-11.642-346.799-13.007-345.972-14.298-347.065-17.069-349.41-20.351-349.856-23.78-350.106-25.145-350.206-26.473-350.779-27.827-351.886-27.791-359.187-27.75-365.736-27.243-372.339M567.556-496.808C563.122-499.26 559.121-501.3 555.393-503.754 549.627-507.552 548.301-513.891 551.654-519.979 552.663-521.808 553.988-523.036 556.183-523.302 559.811-523.742 563.441-524.278 566.358-526.27 567.01-515.896 567.561-506.239 567.556-496.808M462.56-1301.597C462.916-1302.049 463.274-1302.501 463.511-1303.866 464.231-1306.455 464.376-1308.765 467.335-1308.827 467.955-1308.147 468.889-1307.439 469.398-1306.503 470.608-1304.277 471.872-1302.028 472.656-1299.639 474.762-1293.22 476.627-1286.721 478.245-1279.724 477.267-1278.354 476.805-1277.209 475.962-1276.733 473.474-1275.335 470.735-1274.993 467.508-1275.651 466.839-1277.236 466.177-1279.034 465.336-1280.744 464.445-1282.556 463.179-1284.004 460.906-1284.662 461.454-1290.734 462.007-1296.167 462.56-1301.597M57.037 278.149C50.781 278.017 45.289 277.977 39.8 278.099 37.279 278.155 34.88 277.995 32.702 275.888 32.211 271.382 31.751 267.519 31.988 263.818 36.534 263.569 40.376 263.082 44.23 262.765 48.609 262.403 53 262.195 57.406 262.599 57.551 268.287 57.677 273.296 57.037 278.149M25.333 203.547C25.89 197.105 29.287 194.104 35.087 193.455 39.236 192.99 43.402 192.655 47.717 192.825 48.823 196.414 49.77 199.437 50.718 202.463 50.885 204.534 51.053 206.604 51.817 209.483 52.443 210.938 52.471 211.586 51.76 212.028 46.55 211.854 42.077 211.904 37.605 211.916 33.543 211.928 29.832 211.163 27.339 207.443 26.962 206.883 25.942 206.754 25.156 205.996 25 204.995 24.905 204.425 25.333 203.547M573.353-608.568C573.15-608.299 572.947-608.028 572.835-606.571 572.196-599.819 571.466-594.253 570.087-588.911 565.076-588.568 561.013-586.234 556.353-587.265 554.293-587.722 552.315-586.521 551.582-584.605 550.232-581.067 547.006-579.927 544.217-578.213 544.059-578.116 543.137-579.259 542.693-580.544 544.825-592.349 546.836-603.437 549.447-614.54 551.358-614.257 552.902-614.303 553.946-613.604 558.645-610.46 563.966-610.031 569.316-609.886 570.477-609.854 571.672-610.996 572.964-611.097 573.17-609.922 573.261-609.244 573.353-608.568M-83.5-701.61C-89.236-700.991-94.208-700.432-99.183-699.906-104.411-699.353-109.644-698.835-115.438-698.527-119.48-705.88-122.997-712.99-123.769-720.997-122.552-721.078-121.968-720.926-121.452-721.053-110.698-723.698-100.087-723.723-89.667-719.483-88.663-719.076-87.529-718.993-85.93-718.374-83.642-712.696-82.192-707.354-83.5-701.61M518.129-979.166C518.97-969.235 519.767-959.301 520.206-949.778 516.75-953.837 513.454-957.329 510.641-961.176 507.79-965.072 504.985-968.878 500.889-971.613 499.575-972.492 498.675-973.991 497.643-975.686 497.714-976.805 497.726-977.448 497.738-978.092 498.254-978.928 499.109-979.719 499.225-980.606 499.665-983.943 498.573-986.929 496.035-990.606 494.834-996.709 494.206-1001.818 493.856-1007.297 494.186-1008.216 494.208-1008.774 494.307-1009.32 494.354-1009.578 494.552-1009.809 494.68-1010.053 496.333-1007.516 498.076-1005.031 499.621-1002.431 502.858-996.979 507.872-993.461 513.002-990.12 513.994-989.476 515.593-989.76 517.043-988.937 517.496-985.227 517.872-982.2 518.129-979.166M286.715 826.256C286.821 825.169 286.925 824.082 286.548 821.911 285.925 813.167 285.784 805.508 286.288 798.085 290.437 797.922 293.94 797.524 298.088 797.052 301.365 799.138 305.219 801.872 310.376 801.791 310.765 806.018 311.158 809.556 311.303 813.104 311.501 817.982 311.512 822.869 311.152 827.298 305.205 824.199 300.604 825.729 296.389 829.718 293.832 832.138 291.597 835.112 287.629 835.052 287.242 831.676 286.979 828.966 286.715 826.256M467.677 6.968C462.827 6.251 458.727 5.52 454.596 5.098 448.45 4.469 442.431 5.643 436.328 6.116 435.6 1.487 434.969-2.488 434.339-6.462 434.394-7.535 434.449-8.608 433.99-10.42 433.388-11.726 433.303-12.29 433.218-12.855 434.429-13.296 434.199-14.068 433.237-15.562 432.732-16.923 432.68-17.626 432.966-18.866 434.186-19.877 435.102-20.808 435.945-20.746 444.749-20.091 453.641-20.137 462.359-17.061 464.455-8.578 466.433-.744 467.677 6.968M-131.095-761.824C-130.872-763.744-130.119-765.657-129.324-767.448-127.339-771.925-123.888-774.637-118.942-775.01-114.042-775.38-109.417-774.562-105.61-771.047-99.446-765.354-94.968-758.712-94.326-750.223-96.411-751.881-97.756-753.696-99.426-755.135-100.548-756.1-102.131-756.526-104.069-757.467-105.378-753.985-106.532-751.149-107.512-748.254-108.687-744.783-109.569-741.21-110.845-737.782-112.147-734.286-114.672-733.641-117.385-735.915-118.461-736.817-119.579-737.769-120.351-738.917-122.454-742.045-125.553-741.736-129.231-742.146-132.318-748.919-131.847-755.384-131.095-761.824M27.667 32.598C27.987 37.262 28.276 41.929 28.578 46.596 20.866 50.148 12.682 50.344 4.421 49.996 3.598 49.963 2.772 50.005 .669 49.345-.729 41.146-.88 33.618-.915 26.091-.918 25.416-.158 24.738 .671 23.667 2.095 22.302 3 21.2 4.113 20.384 10.442 15.752 17.094 11.889 25.797 12.431 26.737 19.362 27.213 25.979 27.667 32.598M-128.85-738.07C-129.125-739.723-128.886-740.667-128.645-741.613-125.553-741.736-122.454-742.045-120.351-738.917-119.579-737.769-118.461-736.817-117.385-735.915-114.672-733.641-112.147-734.286-110.845-737.782-109.569-741.21-108.687-744.783-107.512-748.254-106.532-751.149-105.378-753.985-104.069-757.467-102.131-756.526-100.548-756.1-99.426-755.135-97.756-753.696-96.411-751.881-94.136-749.623-91.466-741.797-89.589-734.572-87.71-727.35-87.867-726.931-88.066-726.521-88.166-726.093-88.212-725.886-88.073-725.637-87.476-724.572-86.773-722.078-86.613-720.418-86.453-718.759-87.529-718.993-88.663-719.076-89.667-719.483-100.087-723.723-110.698-723.698-121.452-721.053-121.968-720.926-122.552-721.078-123.925-721.6-126.033-726.591-127.321-731.082-128.611-735.574-128.519-736.17-128.426-736.769-128.85-738.07M514.407-1031.035C515.329-1021.08 516.519-1011.151 517.298-1001.187 517.594-997.363 517.065-993.476 516.911-989.616 515.593-989.76 513.994-989.476 513.002-990.12 507.872-993.461 502.858-996.979 499.621-1002.431 498.076-1005.031 496.333-1007.516 494.68-1010.053 494.552-1009.809 494.354-1009.578 494.307-1009.32 494.208-1008.774 494.186-1008.216 493.336-1007.737 491.639-1014.62 490.643-1021.415 489.899-1028.239 489.669-1030.34 488.093-1032.405 489.932-1034.576 492.8-1033.516 494.117-1036.109 496.255-1036.387 497.691-1036.573 498.969-1038.102 500.281-1039.079 504.176-1041.979 508.348-1043.927 513.627-1042.434 514.041-1038.22 514.076-1034.612 514.407-1031.035M-5.435-183.995C3.078-182.372 10.942-180.884 18.833-178.602 18.937-163.62 19.043-149.428 19.068-135.235 19.073-132.468 18.763-129.699 17.956-127.165 14.13-127.396 10.947-127.396 7.306-127.396 8.153-128.313 8.494-128.733 8.89-129.098 9.302-129.475 9.845-129.729 10.194-130.153 13.7-134.392 14.03-138.163 10.259-142.051 8.202-144.171 7.995-146.29 7.773-148.791 7.578-151.01 6.187-152.4 3.959-152.575 .887-152.816-2.201-152.852-5.353-153.718-5.644-164.353-5.864-174.239-5.435-183.995M513.384-1043.056C508.348-1043.927 504.176-1041.979 500.281-1039.079 498.969-1038.102 497.691-1036.573 496.255-1036.387 494.117-1036.109 492.8-1033.516 489.891-1034.998 489.366-1036.019 489.279-1036.574 489.149-1037.124 490.345-1037.566 490.108-1038.328 489.149-1039.957 487.517-1048.716 486.335-1056.671 485.155-1064.624 485.251-1065.499 485.347-1066.373 485.151-1068.303 485.153-1070.021 485.443-1070.682 486.304-1071.293 489.865-1074.103 493.194-1075.7 497.483-1074.504 498.795-1074.138 500.251-1074.203 501.64-1074.215 506.336-1074.251 507.493-1075.403 507.869-1080.022 508.072-1082.499 508.448-1084.963 509.033-1086.796 510.677-1071.792 512.029-1057.424 513.384-1043.056M416.737 269.593C416.311 270.063 415.885 270.534 415.611 271.981 415.677 273.679 415.587 274.397 415.499 275.119 415.499 275.119 414.919 275.713 415.003 276.765 414.452 281.857 413.819 285.897 412.573 289.943 406.31 292.619 403.589 297.065 403.837 303.324 403.86 303.88 403.836 304.445 403.764 304.995 403.482 307.149 402.348 308.571 400.174 309.067 395.858 310.053 391.544 311.038 387.092 311.264 386.568 293.497 388.44 276.727 392.81 260.255 397.819 260.01 401.844 260.906 405.815 262.66 409.374 264.233 413.144 265.325 416.87 267.122 416.859 268.275 416.799 268.934 416.737 269.593M448.117-169.917C449.651-176.921 451.467-183.863 453.535-190.352 462.784-184.099 471.877-184.559 481.062-189.002 481.635-189.279 481.906-190.175 482.534-190.399 482.793-189.43 482.832-188.844 482.871-188.257 480.829-187.559 481.178-185.748 481.044-182.961 478.486-171.349 475.862-160.97 472.557-150.466 463.69-149.53 455.506-148.694 447.316-147.923 445.515-147.753 445.355-149.539 444.643-151.258 445.844-157.951 446.817-163.969 448.117-169.917M498.892-926.374C498.567-934.839 498.348-943.308 497.96-951.767 497.638-958.808 497.1-965.838 496.75-972.877 496.711-973.639 497.29-974.43 497.585-975.208 498.675-973.991 499.575-972.492 500.889-971.613 504.985-968.878 507.79-965.072 510.641-961.176 513.454-957.329 516.75-953.837 520.73-949.373 524.493-931.817 527.297-915.065 532.364-898.8 532.595-898.052 532.337-897.151 531.687-896.293 529.72-897.226 528.373-898.189 527.603-898.739 523.212-898.363 519.373-897.733 515.546-897.799 512.264-897.854 509.63-899.719 508.573-902.971 507.61-905.941 508.897-908.426 511.016-910.544 513.195-912.723 515.464-914.826 517.455-917.167 519.248-919.275 519.054-921.911 517.35-924.09 515.501-926.454 513.447-926.879 510.709-925.747 507.134-924.269 504.715-920.556 499.873-920.899 499.165-923.017 498.955-924.692 498.892-926.374M44.23 262.765C40.376 263.082 36.534 263.569 31.794 263.117 29.554 252.51 28.153 242.772 26.875 233.021 25.96 226.045 25.156 219.051 24.415 212.053 24.214 210.162 23.631 208.109 25.218 206.427 25.942 206.754 26.962 206.883 27.339 207.443 29.832 211.163 33.543 211.928 37.605 211.916 42.077 211.904 46.55 211.854 52.254 212.479 54.167 217.251 55.158 221.342 55.462 225.483 56.329 237.35 56.921 249.237 57.606 261.119 57.621 261.381 57.463 261.652 57.385 261.921 53 262.195 48.609 262.403 44.23 262.765M500.44-920.459C504.715-920.556 507.134-924.269 510.709-925.747 513.447-926.879 515.501-926.454 517.35-924.09 519.054-921.911 519.248-919.275 517.455-917.167 515.464-914.826 513.195-912.723 511.016-910.544 508.897-908.426 507.61-905.941 508.573-902.971 509.63-899.719 512.264-897.854 515.546-897.799 519.373-897.733 523.212-898.363 527.603-898.739 528.373-898.189 529.72-897.226 531.916-895.751 536.049-886.692 539.329-878.146 542.12-869.341 541.085-869.083 540.475-868.92 540.003-869.106 533.837-871.526 528.721-869.959 524.322-865.201 523.018-863.794 521.517-862.541 519.988-861.375 517.539-859.51 514.847-858.18 511.379-858.928 504.41-879.271 501.259-899.661 500.44-920.459M-101.177-651.205C-100.718-651.69-100.695-652.195-101.729-653.469-106.94-668.792-109.18-684.037-114.875-698.301-109.644-698.835-104.411-699.353-99.183-699.906-94.208-700.432-89.236-700.991-83.452-701.26-82.64-700.982-82.48-700.294-82.48-700.294-82.633-699.862-82.829-699.439-82.92-698.994-82.961-698.783-82.799-698.531-82.151-697.428-79.143-685.126-78.212-673.423-74.954-662.122-73.272-656.287-72.589-650.164-71.847-644.62-75.246-646.402-78.251-647.739-81.24-649.066-81.446-650.7-81.477-652.103-81.82-653.423-82.723-656.903-84.936-658.56-88.457-658.327-89.809-658.238-91.189-657.863-92.461-657.371-95.877-656.046-98.885-654.096-101.145-651.133-101.164-651.154-101.177-651.205-101.177-651.205M-3.124-79.167C-3.549-89.256-3.793-99.359-4.509-109.427-5.167-118.662-4.356-127.914-5.594-137.172-6.28-142.3-7.411-147.76-5.281-152.974-2.201-152.852 .887-152.816 3.959-152.575 6.187-152.4 7.578-151.01 7.773-148.791 7.995-146.29 8.202-144.171 10.259-142.051 14.03-138.163 13.7-134.392 10.194-130.153 9.845-129.729 9.302-129.475 8.89-129.098 8.494-128.733 8.153-128.313 7.306-127.396 10.947-127.396 14.13-127.396 18.392-126.625 19.765-120.548 20.184-115.248 20.309-109.942 20.394-106.335 20.07-102.722 19.929-99.111 16.332-97.02 12.304-98.038 8.491-97.508 3.675-96.837 .752-93.166 1.67-88.78 2.172-86.383 2.564-83.774 5.563-81.547 9.486-81.521 14.198-81.49 20.107-80.772 21.391-73.479 21.48-66.871 20.977-60.527 19.106-61.186 17.849-61.771 16.539-61.937 12.397-62.457 8.24-62.868 4.079-63.221 2.14-63.387 .183-63.321-2.19-64.106-2.78-69.624-2.923-74.396-3.124-79.167M4.113 20.384C3 21.2 2.095 22.302 .61 22.947 .028 15.902-.07 9.179-.167 2.457 .03 1.692 .229 .926 .006-.761-.767-20.764-1.122-39.848-1.474-58.93-1.304-59.456-1.136-59.98-1.337-61.163-1.729-62.334-1.749-62.847-1.767-63.36 .183-63.321 2.14-63.387 4.079-63.221 8.24-62.868 12.397-62.457 16.539-61.937 17.849-61.771 19.106-61.186 20.992-60.007 21.642-58.18 21.686-57.14 21.729-56.099 16.072-56.586 10.599-55.655 5.096-54.324 3.24-50.909 4.099-47.938 6.073-45.506 7.792-43.387 9.98-41.432 12.352-40.111 15.009-38.632 18.107-37.945 21.707-36.186 22.902-28.228 23.451-20.998 23.893-13.763 24.42-5.139 24.852 3.489 25.325 12.114 17.094 11.889 10.442 15.752 4.113 20.384M190.476 634.158C191.517 632.939 192.365 631.44 193.638 630.554 197.665 627.75 200.002 624.241 198.658 619.233 197.321 614.245 192.172 610.259 186.823 610.224 184.397 610.208 181.966 611.108 178.437 611.774 175.802 608.19 174.267 604.427 173.404 600.764 177.034 599.361 178.601 596.97 179.03 593.663 179.529 589.806 181.964 587.643 185.759 587.56 189.631 587.475 192.694 586.056 195.442 583.442 196.166 582.754 197.453 582.658 198.726 582.79 201.37 587.887 203.748 592.493 206.179 597.071 207.139 598.881 207.586 600.62 206.121 602.372 203.32 602.326 202.532 604.659 201.619 606.52 200.404 609.001 199.494 611.664 200.195 614.549 201.609 620.386 204.644 624.68 210.979 625.733 213.705 626.187 216.459 626.48 219.891 626.464 220.583 626.084 220.52 626.277 220.52 626.277 220.776 626.819 221.03 627.36 222.086 628.398 227.262 637.63 231.633 646.366 236.022 655.096 236.78 656.605 237.626 658.08 236.235 659.517 232.876 659.141 229.996 659.409 227.543 657.696 220.295 652.633 212.411 652.533 203.885 654.112 199.19 647.152 194.833 640.654 190.476 634.158M296.389 829.718C300.604 825.729 305.205 824.199 311.703 827.705 313.185 831.899 313.594 835.245 314.155 838.564 317.905 860.814 322.981 882.763 329.186 904.453 329.882 906.886 330.558 909.347 330.959 911.841 332.197 919.543 331.772 926.991 327.051 933.646 326.725 934.106 326.466 934.615 326.128 935.067 322.719 939.655 322.515 944.192 325.556 949.214 327.108 951.774 328.391 954.961 328.43 957.881 328.51 964.138 326.772 970.143 323.437 975.556 320.754 979.912 316.496 981.141 311.761 978.988 304.267 975.585 300.458 967.215 302.856 959.281 303.344 957.667 303.95 956.059 304.728 954.566 307.565 949.132 308.161 943.312 308.045 937.308 307.882 928.8 306.555 920.475 304.539 912.229 300.119 894.161 295.634 876.109 291.422 857.995 289.718 850.671 287.9 843.32 287.754 835.718 291.597 835.112 293.832 832.138 296.389 829.718M447.316-147.923C455.506-148.694 463.69-149.53 472.734-149.778 471.719-138.981 469.572-128.791 468.039-118.509 466.05-105.146 464.411-91.726 462.89-78.301 462.005-70.479 461.443-62.609 461.104-54.745 460.813-48.004 460.894-41.235 461.094-34.489 461.26-28.889 461.842-23.303 462.24-17.709 453.641-20.137 444.749-20.091 435.945-20.746 435.102-20.808 434.186-19.877 432.483-19.357 430.91-25.404 430.114-31.496 429.442-37.602 429.26-39.261 429.424-40.962 429.481-42.644 429.566-45.171 429.86-47.702 429.784-50.223 429.449-61.263 431.42-72.006 433.823-82.698 434.56-85.984 435.543-89.239 435.983-92.566 438.371-110.633 440.601-128.723 442.973-146.793 443.143-148.094 444.016-149.302 444.561-150.553 445.355-149.539 445.515-147.753 447.316-147.923M35.087 193.455C29.287 194.104 25.89 197.105 24.703 203.263 23.323 202.772 22.964 202.281 22.885 201.747 18.889 174.98 12.26 148.774 6.087 122.471 4.221 114.519 1.768 106.645 .671 98.588-.926 86.862-.904 74.98-.721 63.136-.7 61.71-.54 60.316 .965 59.578 1.75 59.387 2.558 58.97 3.321 59.041 9.077 59.576 14.863 59.977 20.56 60.903 23.445 61.371 26.167 62.844 29.9 64.723 30.821 66.426 30.711 67.277 30.798 68.109 32.998 89.022 34.918 109.972 37.541 130.832 39.29 144.748 42.054 158.536 44.346 172.384 45.44 179.007 46.49 185.637 47.561 192.264 43.402 192.655 39.236 192.99 35.087 193.455M-23.78-350.106C-20.351-349.856-17.069-349.41-14.298-347.065-13.007-345.972-11.642-346.799-9.4-346.971-6.999-339.848-3.827-333.882-.632-327.924 5.77-315.983 11.364-303.722 14.177-290.365 16.433-279.644 18.956-268.989 18.708-257.885 18.585-252.328 19.019-246.722 19.652-241.189 20.685-232.212 21.07-223.274 20.24-214.253 19.601-207.307 18.708-200.441 19.875-193.308 20.594-188.91 21.452-183.835 18.808-179.393 10.942-180.884 3.078-182.372-5.742-184.748-7.009-194.622-7.205-203.613-7.667-212.593-8.288-224.655-8.669-236.757-9.964-248.753-11.805-265.78-15.027-282.607-19.453-299.176-21.265-305.956-23.398-312.659-24.951-319.497-27.311-329.891-28.978-340.397-27.821-351.136-26.473-350.779-25.145-350.206-23.78-350.106M507.869-1080.022C507.493-1075.403 506.336-1074.251 501.64-1074.215 500.251-1074.203 498.795-1074.138 497.483-1074.504 493.194-1075.7 489.865-1074.103 485.632-1071.42 483.753-1073.746 482.882-1075.856 482.518-1078.053 480.492-1090.257 478.559-1102.477 476.656-1114.701 474.883-1126.085 473.183-1137.481 471.459-1148.874 470.953-1152.213 470.074-1155.554 470.052-1158.901 469.971-1171.605 467.496-1184.062 466.216-1196.631 464.507-1213.409 462.713-1230.172 461.546-1246.999 461.217-1251.764 460.652-1256.521 460.515-1261.29 460.297-1268.867 459.386-1276.471 460.912-1284.02 463.179-1284.004 464.445-1282.556 465.336-1280.744 466.177-1279.034 466.839-1277.236 467.508-1275.651 470.735-1274.993 473.474-1275.335 475.962-1276.733 476.805-1277.209 477.267-1278.354 478.763-1279.341 481.814-1269.323 484.237-1259.201 486.148-1248.983 489.301-1232.126 492.629-1215.275 494.943-1198.296 497.259-1181.302 500.748-1164.505 502.408-1147.391 504.252-1128.368 507.266-1109.459 509.68-1090.489 509.803-1089.526 509.076-1088.453 508.743-1087.432 508.448-1084.963 508.072-1082.499 507.869-1080.022M454.596 5.098C458.727 5.52 462.827 6.251 468.221 7.234 473.858 20.715 478.395 33.75 482.506 46.916 485.102 55.231 487.525 63.657 489.19 72.195 491.368 83.382 490.874 94.543 487.163 105.544 483.724 115.741 479.828 125.646 473.388 134.369 468.369 141.168 463.627 148.2 458.228 154.683 450.441 164.034 443.569 173.977 437.709 184.59 432.372 194.252 428.668 204.542 426.835 215.518 424.24 231.052 421.367 246.54 418.532 262.034 418.243 263.617 417.406 265.101 416.823 266.628 413.144 265.325 409.374 264.233 405.815 262.66 401.844 260.906 397.819 260.01 392.706 259.532 392.121 257.01 392.206 255.301 392.565 253.652 396.116 237.391 400.154 221.258 405.113 205.355 409.404 191.594 414.365 178.103 420.448 165.039 421.605 162.552 423.29 160.312 424.732 157.959 429.413 157.687 434.159 157.808 438.756 157.032 443.367 156.254 447.829 154.58 452.445 153.273 452.297 151.672 450.597 151.885 449.376 151.477 446.481 150.508 444.91 148.25 443.687 145.677 442.851 143.913 442.244 142.034 441.322 140.323 440.415 138.643 439.556 136.759 436.643 135.822 439.093 131.044 442.001 126.878 445.202 122.95 451.87 114.772 457.245 105.975 459.83 95.6 462.069 86.616 462.536 77.665 458.986 69.004 455.142 59.622 450.792 50.448 446.643 41.191 444.685 36.821 442.475 32.551 440.741 28.093 438.083 21.262 436.245 14.206 436.426 6.772 442.431 5.643 448.45 4.469 454.596 5.098M519.988-861.375C521.517-862.541 523.018-863.794 524.322-865.201 528.721-869.959 533.837-871.526 540.003-869.106 540.475-868.92 541.085-869.083 542.641-869.023 544.267-867.098 544.802-865.203 545.505-863.372 555.705-836.804 565.052-809.955 573.218-782.679 578.395-765.378 581.992-747.763 585.011-730.015 586.094-723.663 585.87-717.092 586.917-710.73 589.108-697.396 587.398-684.35 584.886-671.309 582.596-659.431 580.15-647.584 577.998-635.684 576.697-628.493 575.878-621.216 574.696-614.003 574.552-613.124 573.488-612.394 572.851-611.597 571.672-610.996 570.477-609.854 569.316-609.886 563.966-610.031 558.645-610.46 553.946-613.604 552.902-614.303 551.358-614.257 549.281-615.182 551.855-628.992 556.391-641.691 562.582-653.854 567.844-664.194 569.472-675.181 566.794-686.726 564.289-697.515 560.697-707.937 555.691-717.734 549.221-730.399 544.856-743.812 541.271-757.402 538.992-766.041 538.773-775.236 537.8-784.201 537.102-790.631 536.831-797.109 536.094-803.536 535.645-807.445 534.94-811.368 533.882-815.156 531.746-822.804 528.636-829.951 523.653-836.352 518.492-842.977 513.607-849.912 511.637-858.353 514.847-858.18 517.539-859.51 519.988-861.375M227.543 657.696C229.996 659.409 232.876 659.141 236.865 659.661 243.706 670.312 246.517 681.057 243.758 692.642 242.088 699.654 242.246 706.687 243.143 713.654 244.372 723.203 242.488 732.166 239.264 740.979 238.008 744.412 236.359 747.708 234.829 751.039 227.484 767.032 227.299 783.839 229.592 800.786 231.383 814.024 236.799 826.302 241.726 838.517 247.513 852.858 254.776 866.624 261.754 880.459 267.861 892.569 275.318 903.894 283.51 914.699 287.065 919.39 289.111 924.258 288.586 930.326 287.813 939.279 287.511 948.275 287.038 957.255 286.696 963.767 283.767 969.144 279.699 973.994 273.563 981.313 268.44 979.116 263.815 973.138 263.304 972.477 262.931 971.695 262.568 970.933 259.069 963.592 258.448 956.29 263.287 949.275 265.31 946.348 266.253 943.25 265.888 939.754 264.738 928.741 262.124 918.211 256.963 908.261 250.175 895.169 241.565 883.319 233.07 871.362 229.482 866.315 225.486 861.429 222.745 855.936 217.969 846.355 213.791 836.457 209.784 826.521 204.246 812.79 201.512 798.398 201.705 783.602 201.885 769.716 204.994 756.204 208.274 742.782 211.884 728.006 216.129 713.394 218.154 698.242 219.507 688.121 218.546 678.584 213.38 669.683 210.427 664.591 207.283 659.606 204.226 654.574 212.411 652.533 220.295 652.633 227.543 657.696M-13.799-366.413C-17.526-368.233-20.968-370.631-24.604-372.655-25.12-372.94-26.041-372.496-27.576-373.096-28.57-381.984-28.166-390.234-29.089-398.331-30.592-411.541-34.185-424.326-39.135-436.697-47.944-458.71-57.023-480.613-64.633-503.093-67.892-512.719-69.328-522.217-65.193-531.95-63.016-537.071-62.878-542.497-64.23-547.773-65.694-553.496-67.297-559.266-69.646-564.666-81.128-591.076-92.067-617.677-100.004-645.412-100.535-647.268-100.761-649.211-101.127-651.113-98.885-654.096-95.877-656.046-92.461-657.371-91.189-657.863-89.809-658.238-88.457-658.327-84.936-658.56-82.723-656.903-81.82-653.423-81.477-652.103-81.446-650.7-81.24-649.066-78.251-647.739-75.246-646.402-71.294-644.308-68.796-638.728-67.638-633.732-65.607-629.123-61.18-619.071-56.352-609.195-51.601-599.29-48.431-592.682-45.021-586.187-41.883-579.563-37.357-570.011-34.845-560.143-35.458-549.324-35.956-540.585-37.032-531.948-37.921-523.27-38.232-520.237-38.667-516.938-37.825-514.124-35.977-507.939-33.516-501.919-30.991-495.964-28.904-491.037-26.337-486.314-24.033-481.479-15.61-463.794-9.782-445.311-7.319-425.848-6.647-420.546-6.481-415.178-6.168-409.835-5.872-404.778-5.247-399.688-5.543-394.66-6.172-383.989-7.282-373.347-8.278-362.699-8.346-361.978-9.113-361.323-9.555-360.636-10.511-362.89-11.198-365.141-13.799-366.413M39.8 278.099C45.289 277.977 50.781 278.017 57.42 278.737 58.945 281.983 59.476 284.474 59.675 286.99 60.563 298.291 61.934 309.452 67.12 319.788 69.166 323.868 70.113 328.281 70.365 332.855 70.52 335.672 70.92 338.478 71.087 341.295 71.398 346.613 73.81 350.952 77.033 355.027 79.998 358.777 83.091 362.494 85.525 366.587 93.591 380.151 101.572 393.773 109.216 407.577 114.271 416.705 118.708 426.178 123.392 435.509 132.632 453.915 143.117 471.658 151.852 490.352 159.494 506.711 168.25 522.55 176.556 538.597 183.687 552.374 190.887 566.116 198.016 579.896 198.374 580.589 198.335 581.487 198.481 582.289 197.453 582.658 196.166 582.754 195.442 583.442 192.694 586.056 189.631 587.475 185.759 587.56 181.964 587.643 179.529 589.806 179.03 593.663 178.601 596.97 177.034 599.361 172.845 600.616 170.642 598.652 169.557 596.99 168.727 595.209 162.169 581.136 155.814 566.981 150.964 552.191 149.297 547.108 147.272 542.124 145.142 537.212 137.059 518.577 128.981 499.964 118.785 482.31 110.464 467.898 103.262 452.843 95.05 438.364 80.147 412.089 64.468 386.268 47.818 361.057 45.293 357.233 43.382 353.246 41.86 348.979 36.953 335.215 35.219 321.007 36.196 306.496 36.544 301.344 35.849 296.459 34.879 291.444 33.93 286.532 31.877 281.718 32.732 276.53 34.88 277.995 37.279 278.155 39.8 278.099M481.062-189.002C471.877-184.559 462.784-184.099 453.437-191.066 453.322-194.198 453.602-196.156 454.055-198.07 462.022-231.671 474.765-263.702 486.404-296.087 492.224-312.282 498.745-328.226 504.95-344.281 509.222-355.329 513.753-366.283 517.7-377.444 521.556-388.349 524.828-399.458 528.341-410.483 536.166-435.037 541.489-460.066 543.091-485.858 543.62-494.374 543.301-502.806 542.071-511.187 540.594-521.244 539.49-531.295 539.344-541.478 539.17-553.638 540.44-565.7 541.294-577.793 541.343-578.498 542.13-579.149 542.572-579.826 543.137-579.259 544.059-578.116 544.217-578.213 547.006-579.927 550.232-581.067 551.582-584.605 552.315-586.521 554.293-587.722 556.353-587.265 561.013-586.234 565.076-588.568 570.399-588.193 570.751-581.95 569.89-576.664 569.582-571.346 568.85-558.689 568.4-546.018 567.786-533.353 567.68-531.156 568.102-528.784 566.255-526.987 563.441-524.278 559.811-523.742 556.183-523.302 553.988-523.036 552.663-521.808 551.654-519.979 548.301-513.891 549.627-507.552 555.393-503.754 559.121-501.3 563.122-499.26 568.08-496.352 570.299-487.715 568.677-479.937 567.377-472.187 563.638-449.87 557.223-428.184 550.835-406.548 542.925-379.756 534.085-353.239 525.7-326.588 513.677-288.367 501.679-250.142 489.731-211.897 487.883-205.977 486.433-199.933 484.625-193.997 484.261-192.801 483.109-191.848 482.321-190.782 481.906-190.175 481.635-189.279 481.062-189.002M310.268 801.105C311.392 790.744 312.427 780.372 313.663 770.023 316.107 749.558 319.825 729.323 325.036 709.372 329.028 694.085 332.704 678.704 337.101 663.533 340.949 650.264 345.738 637.27 349.871 624.08 354.95 607.88 361.246 592.195 368.724 576.955 377.234 559.604 388.216 543.945 400.457 529.065 406.945 521.179 414.148 514.126 422.013 507.637 426.571 503.876 430.693 499.568 434.841 495.343 440.715 489.362 444.541 482.006 446.688 474.09 448.93 465.829 448.171 457.306 446.022 448.977 443.252 438.244 438.299 428.393 433.708 418.396 432.767 416.348 431.747 414.333 430.875 412.257 429.163 408.186 428.39 404.313 431.702 400.388 433.736 397.979 434.031 394.813 433.542 391.544 432.324 383.405 430.245 375.54 427.117 367.922 419.468 349.304 413.682 330.155 412.38 309.966 411.983 303.833 413.065 297.605 412.716 290.687 406.31 292.619 403.589 297.065 403.837 303.324 403.86 303.88 403.836 304.445 403.764 304.995 403.482 307.149 402.348 308.571 400.174 309.067 395.858 310.053 391.544 311.038 387.229 312.024 386.566 325.68 388.434 339.047 392.697 351.968 394.257 356.703 397.232 360.997 399.76 365.378 402.012 369.284 404.615 372.985 406.92 376.862 409.055 380.463 409.706 384.219 407.431 388.084 405.138 391.979 404.861 396.017 406.428 400.283 408.078 404.772 409.223 409.475 411.161 413.828 414.021 420.254 417.329 426.487 420.557 432.743 423.819 439.062 426.319 445.644 427.386 452.675 429.167 464.418 426.054 475.015 419.552 484.79 415.117 491.455 409.508 497.04 403.311 501.948 392.7 510.355 381.703 518.237 369.729 524.678 364.946 527.252 361.196 531.101 358.055 535.553 350.851 545.769 345.353 556.904 340.849 568.491 335.841 581.375 331.631 594.534 328.474 608.027 326.611 615.983 324.023 623.77 322.146 631.723 316.966 653.672 312.28 675.741 306.829 697.62 302.947 713.2 298.407 728.634 293.675 743.983 288.405 761.075 284.899 778.382 286.001 797.326 290.437 797.922 293.94 797.524 298.088 797.052 301.365 799.138 305.219 801.872 310.268 801.105" fill="#f0f0f0"/>
</g>
</g>
</g>
</svg>
